<mxfile host="app.diagrams.net" modified="2023-08-21T16:33:16.121Z" agent="Mozilla/5.0 (Windows NT 10.0; Win64; x64) AppleWebKit/537.36 (KHTML, like Gecko) Chrome/116.0.0.0 Safari/537.36" etag="pFGC5g8aNTSvY0Gkz_j8" version="21.6.6" type="device">
  <diagram name="Page-1" id="tR28DN5wSWUepiYVkLFS">
    <mxGraphModel dx="1952" dy="699" grid="1" gridSize="10" guides="1" tooltips="1" connect="1" arrows="1" fold="1" page="1" pageScale="1" pageWidth="827" pageHeight="1169" math="0" shadow="0">
      <root>
        <mxCell id="0" />
        <mxCell id="1" parent="0" />
        <mxCell id="jh1rNjYCe_qUlhZB1Dzx-59" value="" style="rounded=0;whiteSpace=wrap;html=1;strokeWidth=3;glass=0;fillColor=none;" vertex="1" parent="1">
          <mxGeometry y="570" width="190" height="40" as="geometry" />
        </mxCell>
        <mxCell id="jh1rNjYCe_qUlhZB1Dzx-58" value="" style="rounded=0;whiteSpace=wrap;html=1;strokeWidth=3;glass=0;fillColor=none;gradientColor=none;" vertex="1" parent="1">
          <mxGeometry x="190" y="570" width="570" height="40" as="geometry" />
        </mxCell>
        <mxCell id="jh1rNjYCe_qUlhZB1Dzx-25" value="" style="rounded=0;whiteSpace=wrap;html=1;strokeWidth=3;glass=0;fillColor=none;" vertex="1" parent="1">
          <mxGeometry y="790" width="383" height="40" as="geometry" />
        </mxCell>
        <mxCell id="jh1rNjYCe_qUlhZB1Dzx-57" value="" style="rounded=0;whiteSpace=wrap;html=1;strokeWidth=3;glass=0;fillColor=none;" vertex="1" parent="1">
          <mxGeometry x="383" y="790" width="377" height="40" as="geometry" />
        </mxCell>
        <mxCell id="fc4LyqZEj_QPbQh21jAA-98" value="" style="rounded=1;whiteSpace=wrap;html=1;strokeWidth=3;" parent="1" vertex="1">
          <mxGeometry x="480" y="190" width="150" height="160" as="geometry" />
        </mxCell>
        <mxCell id="fc4LyqZEj_QPbQh21jAA-97" value="" style="rounded=1;whiteSpace=wrap;html=1;strokeWidth=3;" parent="1" vertex="1">
          <mxGeometry x="320" y="190" width="150" height="160" as="geometry" />
        </mxCell>
        <mxCell id="fc4LyqZEj_QPbQh21jAA-16" value="" style="rounded=1;whiteSpace=wrap;html=1;strokeWidth=3;" parent="1" vertex="1">
          <mxGeometry y="190" width="150" height="160" as="geometry" />
        </mxCell>
        <mxCell id="fc4LyqZEj_QPbQh21jAA-9" value="" style="verticalLabelPosition=bottom;verticalAlign=top;html=1;shadow=0;dashed=0;strokeWidth=2;shape=mxgraph.android.phone2;fillColor=#000000;strokeColor=none;fontColor=#ffffff;" parent="1" vertex="1">
          <mxGeometry x="89.80000000000001" y="209.4" width="28.31" height="55.2" as="geometry" />
        </mxCell>
        <mxCell id="fc4LyqZEj_QPbQh21jAA-10" value="" style="shape=actor;whiteSpace=wrap;html=1;strokeWidth=3;" parent="1" vertex="1">
          <mxGeometry x="28.569999999999993" y="214" width="32.86" height="46" as="geometry" />
        </mxCell>
        <mxCell id="fc4LyqZEj_QPbQh21jAA-11" value="" style="html=1;verticalLabelPosition=bottom;align=center;labelBackgroundColor=#ffffff;verticalAlign=top;strokeWidth=2;strokeColor=default;shadow=0;dashed=0;shape=mxgraph.ios7.icons.home;fillColor=none;" parent="1" vertex="1">
          <mxGeometry x="21.47" y="290" width="47.06" height="50" as="geometry" />
        </mxCell>
        <mxCell id="fc4LyqZEj_QPbQh21jAA-15" value="" style="shape=mxgraph.signs.sports.rv;html=1;pointerEvents=1;fillColor=#000000;strokeColor=none;verticalLabelPosition=bottom;verticalAlign=top;align=center;" parent="1" vertex="1">
          <mxGeometry x="80" y="310" width="47.9" height="30" as="geometry" />
        </mxCell>
        <mxCell id="fc4LyqZEj_QPbQh21jAA-23" value="" style="rounded=1;whiteSpace=wrap;html=1;strokeWidth=3;" parent="1" vertex="1">
          <mxGeometry x="160" y="190" width="150" height="160" as="geometry" />
        </mxCell>
        <mxCell id="fc4LyqZEj_QPbQh21jAA-24" value="" style="verticalLabelPosition=bottom;verticalAlign=top;html=1;shadow=0;dashed=0;strokeWidth=2;shape=mxgraph.android.phone2;fillColor=#000000;strokeColor=none;fontColor=#ffffff;" parent="1" vertex="1">
          <mxGeometry x="249.8" y="209.4" width="28.31" height="55.2" as="geometry" />
        </mxCell>
        <mxCell id="fc4LyqZEj_QPbQh21jAA-35" style="edgeStyle=orthogonalEdgeStyle;rounded=0;orthogonalLoop=1;jettySize=auto;html=1;exitX=1;exitY=0.75;exitDx=0;exitDy=0;" parent="1" source="fc4LyqZEj_QPbQh21jAA-25" edge="1">
          <mxGeometry relative="1" as="geometry">
            <mxPoint x="246" y="249" as="targetPoint" />
          </mxGeometry>
        </mxCell>
        <mxCell id="fc4LyqZEj_QPbQh21jAA-36" style="edgeStyle=orthogonalEdgeStyle;rounded=0;orthogonalLoop=1;jettySize=auto;html=1;exitX=0.5;exitY=1;exitDx=0;exitDy=0;" parent="1" source="fc4LyqZEj_QPbQh21jAA-25" edge="1">
          <mxGeometry relative="1" as="geometry">
            <mxPoint x="205" y="280" as="targetPoint" />
          </mxGeometry>
        </mxCell>
        <mxCell id="fc4LyqZEj_QPbQh21jAA-37" style="edgeStyle=orthogonalEdgeStyle;rounded=0;orthogonalLoop=1;jettySize=auto;html=1;exitX=0.75;exitY=1;exitDx=0;exitDy=0;" parent="1" source="fc4LyqZEj_QPbQh21jAA-25" edge="1">
          <mxGeometry relative="1" as="geometry">
            <mxPoint x="256" y="300" as="targetPoint" />
          </mxGeometry>
        </mxCell>
        <mxCell id="fc4LyqZEj_QPbQh21jAA-25" value="" style="shape=actor;whiteSpace=wrap;html=1;strokeWidth=3;" parent="1" vertex="1">
          <mxGeometry x="188.57" y="214" width="32.86" height="46" as="geometry" />
        </mxCell>
        <mxCell id="fc4LyqZEj_QPbQh21jAA-26" value="" style="html=1;verticalLabelPosition=bottom;align=center;labelBackgroundColor=#ffffff;verticalAlign=top;strokeWidth=2;strokeColor=default;shadow=0;dashed=0;shape=mxgraph.ios7.icons.home;fillColor=none;" parent="1" vertex="1">
          <mxGeometry x="181.47000000000003" y="290" width="47.06" height="50" as="geometry" />
        </mxCell>
        <mxCell id="fc4LyqZEj_QPbQh21jAA-27" value="" style="shape=mxgraph.signs.sports.rv;html=1;pointerEvents=1;fillColor=#000000;strokeColor=none;verticalLabelPosition=bottom;verticalAlign=top;align=center;" parent="1" vertex="1">
          <mxGeometry x="240" y="310" width="47.9" height="30" as="geometry" />
        </mxCell>
        <mxCell id="fc4LyqZEj_QPbQh21jAA-39" value="" style="html=1;verticalLabelPosition=bottom;align=center;labelBackgroundColor=#ffffff;verticalAlign=top;strokeWidth=3;strokeColor=#000000;shadow=0;dashed=0;shape=mxgraph.ios7.icons.clock;" parent="1" vertex="1">
          <mxGeometry x="338" y="220" width="50" height="50" as="geometry" />
        </mxCell>
        <mxCell id="fc4LyqZEj_QPbQh21jAA-95" value="" style="shape=image;verticalLabelPosition=bottom;labelBackgroundColor=default;verticalAlign=top;aspect=fixed;imageAspect=0;image=data:image/png,iVBORw0KGgoAAAANSUhEUgAAAgsAAAIhCAYAAADAaPmeAAAAAXNSR0IArs4c6QAAAARnQU1BAACxjwv8YQUAAAAJcEhZcwAADsMAAA7DAcdvqGQAAIZoSURBVHhe7Z0H/FxFufcnBAihJhBqCL1KlaqASBXpRVFUuIIIF/UKKKAiol69ghQb9+orICpVeBW4wkuRKlKl9xQ6AUJNIQlpwL77neS3TI77P1v+Zc/u/r6fz3zmlDlz5nnmmWeeU/bsoFKZYIwxxhjTAwvMy40xxhhjquJgwRhjjDG5OFgwxhhjTC4OFowxxhiTi4MFY4wxxuTiYMEYY4wxuThYMMYYY0wuDhaMMcYYk4uDBWOMMcbk4mDBGGOMMbk4WDDGGGNMLg4WjDHGGJOLgwVjjDHG5OJgwRhjjDG5OFgwxhhjTC4OFowxxhiTi4MFY4wxxuTiYMEYY4wxuThYMMYYY0wuDhaMMcYYk4uDBWOMMcbk4mDBGGOMMbk4WDDGGGNMLg4WjDHGGJOLgwVjjDHG5OJgwRhjjDG5OFgwxhhjTC4OFowxxhiTi4MFY4wxxuTiYMEYY4wxuThYMMYYY0wuDhaMMcYYk4uDBWOMMcbk4mDBGGOMMbk4WDDGGGNMLg4WjDHGGJOLgwVjjDHG5OJgwRhjjDG5OFgwxhhjTC4OFowxxhiTi4MFY4wxxuTiYMEMCO+//34lJ5VKpZggXU5ROfHuu+9WLWdMkcBG33vvvXlrPdt3dns6NoA6qh1nTCsYVDZGW6MZEObMmRMWXHDBeWsfBAODBw+et2WuA4VBgwbFnHWWKUs5clhgAce5pnikNs1kTy4bJs/aN1AOeyZpP2Nl4YUXjsvGFAEHC6bfkYlpomcdZylHqgSpExXsS4ODamWMKQqyZexddqttIrV3JQUaJNbTINqYVuPLM9PvyBmmyzhRnCNXVayzPHXq1DBp0qQwa9as+Y6BdNmYoqMJP7uMbWPj2Do2z3bGAEmkgbExRcF3FsyAIIcpp6j1l156Kfz5z38Od9xxR3jzzTfD9OnTw9JLLx0222yzsOeee4Ytt9wyLLbYYuGdd94JQ4cOjcfZmZqiorsD2Ojs2bPDkCFDok3fe++94ZprrgkPPfRQmDhxYrTpESNGhO222y4ceOCBYZVVVqkEzuC7CqZoOFgw/Q5OEOeJI8TccKjws5/9LHz/+9+Pz2fZRhk9muCYRRddNDrS//qv/wojR46slDGm6GDTCy20UBg/fnz43ve+F6688sowbdq0aN8KmmXPlMPGjz322Hgs22TnlHPgYIqAgwUzYMjUJkyYEL773e+Gyy67rPLIARREgBwm2zbZZJPwhz/8IWy00UZxPX1J0pgioWAY233iiSfCF7/4xXg3gXXtEwoI2M7LjJ/73OfCKaecElZYYYW4XcG1xocxrcSXaabfkZMkf+utt+IdhSuuuKLyU0j2pU4UWOeqCh599NFw6KGHhjFjxlQCCI4jGVMEZI8kJvfRo0eHQw45JDzyyCNxvScbly2TX3755eHMM8+MY0T7beOmKDhYMP2OHB6T/9///vdwySWXhBkzZlSCgTzkgLlKO+OMM8KUKVN8pWUKC7aJjWKr2KzstxYEzjNnzoxjgzHCYwywrZui4GDB9Ds4S5wezvDSSy8Nb7zxRrxqquUI2U/S8TjR++67b95eY4oJNoqtprZLyoP9jAle8mWM8HhOjy6MKQIOFky/wwtaOEJur958882Vl7tIeagML4DxZjmOlLfK67kjYUwrwDYJFrBVbBbbrcfWCQoow/GMEX4xwbLeazCm1dgSTb+jq6Mnn3wyTJ48OV5F8ZJiPVdbOEvdkuXRxbPPPht/imZMEcE2sVFsFbBdbLiWrYN+9cBjDN55gFpBhjEDhYMF0+/g8HCWPH5QAFDP3YHUwWoZRypHbEzRwDaxUahmv3kwTnQn4bXXXqvrGGMGCgcLpt+R0+MlLuBOg57l5oHzJKk8ywQZJAUgxhQBbDFrn6ndkmqhY0BjxZii4GDB9Ds4QK6YcIaa4OVcG0GOlGO1DCyn68YMBFm7Y1n23ag9psdqbDBmGq3HmP7CwYIxxhhjcnGwYIwxxphcHCwYY4wxJhcHC8YYY4zJxcGCMcYYY3JxsGCMMcaYXBwsGGOMMSYXBwvGGGOMycXBgjHGGGNycbBgjDHGmFwcLBhjjDEmFwcLxhhjjMnFwYIxxhhjcnGwYIwxxphcHCwYY4wxJhcHC8YYY4zJxcGCMcYYY3JxsGCMMcaYXBwsGGOMMSYXBwvGGGOMycXBgjHGGGNycbBgjDHGmFwcLBhjjDEmFwcLxhhjjMnFwYIxxhhjcnGwYIwxxphcHCwYY4wxJhcHC8YYY4zJxcGCMcYYY3JxsGCMMcaYXBwsGGOMMSYXBwvGGGOMycXBQh2USqV/Se+///586yrHdqX33nuvsp9lbdNyt6RUD7DAAnPNTnlPDB48OJYZNGhQzFWeetj27rvvVj2fk9NAJ2wRm0xtPLVdbDkP2XZq46Ru9BXoMvWT6CFbTnqWnlQmXVcyfcOgsjKtzRpghFlHkG4jsY1c2wXLM2bMCJMnTw7Tpk2Ly9OnT+8qI2bQL7TQQuHqq68Op5122nx6qwd0yzHUs91224XjjjsujBgxIuo6da6p3o3pb1Kbky2++eab4ec//3m4/fbbY4BAGfbVA3VpbHz7298Oe++9d5gzZ07NQKOTQP7FFlssLLLIImHJJZcMSy21VBg6dGjUifRNLp8gf5tul77Tbab3OFioA1QkwwOWAaNM92n51VdfDWPGjAlPPfVUGDduXBg/fnwMFggUZs6cGZPq6hYYsOjg5ZdfjjpCdzhBAoA8pFty0hJLLBFWXHFFOwBTSLDrCRMmhKlTp87nE2qNd40F7JqyI0eODMOGDatMfN0CuiJQGDJkSFh88cXjeF9llVXCuuuuG9Zcc82w/vrrhxVWWGE+n6Bl+QTpOt1neo+DhTrgthiDGaNjQMswGcgss/+ll14K119/ffjb3/4WRo8eHSZNmhSDgtmzZ1duq3GMrja6Se3SFTl6kPwazHnIAaROk212AKaIYM9ZW4Vak77GAjkJP6ExU+vYTkLyy0+wzF3JhRdeOAYRw4cPjwHDbrvtFj75yU+GlVdeOSy44IKxrHTFsvws9bDf9B4HC3WigYvxafBOnDgx3HzzzeGiiy4Kd955Z3j77bfjdsph3JQjUEDFJAwfrPK5OpJeekL6IkeX5Ax86dSYopG1Udk51LJ12bmZC/qQDgkYWOfiSzriMcW2224bDj744LDzzjuHpZdeOm6nfBpsmb7BwUKdKEjg9uJzzz0XrrnmmnDZZZfFRw3apwiWdUC1GHi15W4ilRsdoSsN+FrIYQit97TdmIGiP2yTyY1EsMFx0G123ZO+pA8CAUBHCgzWXnvt8NnPfjbsueeeYfXVV4+PL7TP9A0OFhJQRWqoLDPxY3BTpkwJ999/f7j22mvDVVddFZ5++un5olfy9DhSdkJM6+42srI3qotu1p1pT3pr47b5D0AXQjphm3wvOb56rbXWCvvss0/YY489whZbbBFfkJQPT49jOa3T1MbBwjwUpZLzCIEcI8TIeFnxvPPOC9ddd114/vnn47sIlOFNZavPGGNaC76bu5Y8puDdhtVWWy3svvvu4fDDDw/rrbdeDBjSMrrDqbvBpjYOFuaBGog0MSASy7NmzQp/+MMfwplnnhl/4UBwoLJKxhhjWg8+WwnfzHsO/HLihBNOCIcddlj8hQXbCRpILFPW1IeDhTKogGgT49LdhWeeeSZ8//vfD//7v/8bgwS2E51iW9IY5RVAGGOMaQ2pL5aPVkDAvv322y/86Ec/ij+/1F0FynOH2AFDfThYKCMVEDDAjTfeGH784x+HBx54IBqSHlFUU5XVZ4wxraXahM82PWrAT2+22WbxAnCXXXaJ+wgUVM7UpuuDBYlPztfXLrzwwvA///M/4cUXX6xsx5jISXqpUQbGsjHGmNaRfYFx7l3gDx5JyF/zgaf/+I//CIccckj8Cqy2Kzc942BhnvgvvPBCOPXUU8Mll1wSv7SogED7ZXDY1Pvvf/ABEGOMMa1HPnmBBfDbH/hskC+nDJ+P/vznPx9OPPHEsOqqq1b2m3y6LliQuDIcHjFwF+E73/lO/O8CXmrsS5XICNM6ZbgiNdS+PHdRSOXVnZl65UzLZwe06qimY2P6m6zdVbNPtuFnuNKth2x51jvRrlNdpfJl5VW5vtQBdfKyI/+98dOf/jTebdB7DDpf2j4zl64MFjAEBiOBAo8e+GOiP//5zxWD7AuVMOCBulRfPYbfiUaKvNkgATnz9AAqw7EkvVMCWV2qbCfqzxQP2Vpqf6B14Jk4fka3xNN91cjWp6BBdXcSebrI6pJ1bcOH9BbVRX7ggQeGn/3sZ/GRBAEDfobzqoz5gK4KFrJXqG+99Vb8d7c//vGPcV0MhEpSY+yWLlD0DsifBg89QTmO0y9S6j3OmFaAfWKn2Cd2ypv4XJTUY+c6DljmuG4A2cVAjOv0fHDooYfGf8NdZpll4jptUH+YD+gabcgASCzzvw4//OEP4wuNmoRUrq9QnTpvSrrOctqGTgO5iNhxfproyWvJy34Sx2ngcpzQftWj3Jj+JrW51AZBNqoJP7u/GuxPxwbHMWZqHdeuIFfW52VlZV3bsvt6g3w8ddIG5gDmAuYE9um8fTkXdAJdcWchFZFlvsDIsypeaOQ2HwajgdrXaJID6tc5ZPysV1vuJCQTOsYBypkOHowz7flZLrqTzrTM8fQZy0DdJJXrRP2Z4iFbS20PWJeNsoytq5zsvhrcPeMYwNbll0B1dxLpWM0ug3Qm8nTXLNSPjuWXeOGRd9f4AmR67nS5m+mqYEED9/e//3046aST4vsKMgQN1L4C4+O8OieQs40cg8zelte+TgS5SPwzJ3IqaFDfVEM64dkv7yuwzm1d3mbmWDlkBRI6xpj+JrU32TE2jS3yayoem2VtV8dUQ3Ysm+YfFSmfd0w7g1ypTpCduylcyGX3kbOfbf3hp4Fz8N7CT37yk/ClL32pck7gvKash7JSOtMaEyQi+T/+8Y9wzDHHhMcff7wykcsw+1IV1Imx8dYtXw3beuutw5Zbbhn/EW3UqFFh2LBhcdLTeTUYFDx0EsiEvL/61a/iy6SSE5nz5KWcQEes8733s846Kyy//PLRCUtvoi/70JieyNocdkxg8Nprr0X/wh/OyWZFnm0yaeluAuV46Y56Jk+eHLd1GpITvaEjEkEW8o4fPz7+s+99990X/vnPf8av6fIrNcrm6bBRdF7qJNGmDTfcMPqp7bffvtJ3yrudjg4WJBqdjbHxTIrvhF966aX/MknlqUGGLaPJlk23c7eAiWyDDTYIO+64Y/z3s3XWWafytTDRTQaIE8QZnnvuueGoo46K29BVns57Yt999w2/+c1vwnLLLRd1DarHg9oMJFm748r49ddfD1/72tfiZ+IbhXpU129/+9twxBFHVMZOt5D1CVwQjBs3LgZft956a3jiiSdiQKY7MNX8iHTIdpbrvSABfP1BBx0UTj/99PjCo/5PArJlu43OC1nLqHPJMRS9LPTXv/41/nOkSMvlkUb2lCXJUMnZT05QwL+c/Z//83/CxRdfHI4//vgYNBAopFExOevdkgaSaud3currNJBUO3+npqyPxHfiQ/GlfDCPIAofi68F+V75YnLVAanvrkZ6PsEccdVVV8U5g7kj266upSx8R1Lu5FK5k2NiecyYMaX11luvVDaeUtmoYo74LJNY7imVjaZyDDnr5avayrHlq9xS+WqidMstt5QmT54czzdnzpyYlyPg2B7awTJ5t4Ee4Jxzzok6lB6r6bpW2nfffUsvv/xy1K9QPxszkGTtDpvENvfbb7+qtlsryceQGCugsdNNoNPUV7KMHuRP8bG33npr9Ln4XvkTfDK+GV1qm9Z7SpSRL9Ix5MwVzBmcU/3cjX2R0pF3FsodW4ko9ft8fvnA7Swoyx3LiLKBzFuqTtlA44t1HENZjmcbkSdRL7fF+eOp7bbbLiy++OLxfOwjV93kpPS8xhhj5kd+NvWd+FL5U3wsvhaf++tf/zr6YB5J4pN1LDl3JdiWh84BHINvB+YK5gzOyRwCLHez/+7IYIFOVUCAwdx2223h/PPPjxM425n4MRLybOBQDerTy3TAcyzYdtttw5VXXhn233//sNRSS8X6UoOSIWJsGC3rakM3pYGk2vmdnPo6DSTVzt/JCR+Jr8RnaqKWL2UbPpbgAJ97wAEHRB+MLwb97JEyvKdGXXkoQMjOCRzHnMHckT5G1hzQjXSk5HTqu+/O/frZtGnTws9//vPY+WxjHwZILjAAGWM1ZCSl0gcGc9hhh0Uj5dcNQN0KEtgv4wIMW0bLNs7VTWkgqXZ+J6e+TgNJtfN3cpLfxGfiO4FtpNSP6q4BPviKK66IPpn9KosfzruzwLkoIzhGcwP+nLqYO5hDQPNHt9KxwQJGhjHcdNNN8ec3MprUKDEMckiNQNuyeXkpDB8+PL7tzM/3+Dmg9hF9UgeJbRgaubaJD+oyxhiTJfWRqU9lYk99KncBgG34ZXzyV7/61bgMOg6yObAf2Ka5QAmYM5g7brzxxrhNdx26lY4MFtThfACIq39+uytkaOp08vSOgAylGnwohQ928GYu30gAjlF0SoCQRqqQ7jfGGFM/1fxnuo0cn40fxyfjm/HR+GrNA1nYpuPTO8CaF5SAuYNfRkydOrWyrVvpyFlMBvDoo4+G+++/v/Lcq57OVhndmZAhEgjsueee4eijj46/v2VbNUM0xhgzsMhP45vx0fhqPZKQH08fadRCvp2549577w0PP/xwpZ5upaOCBYyAhJHwQiJfa3z++efni0J7gn0yInJuQSnowEDWWmut8K1vfSusuOKKcV0BiDHGmNajRwn4aHw1Ppt1fDi+HJ+e+vi8+UAwl7zwwgvhzjvvjC9MguroNjryzgJGwVe+eN7Et8ZZp9P1uCEPyil6JCca5X2Ek08+OWy00UaVoEK/iDDGGNN69LVFfDS+Gp+N79ZdYiDHx9dC9fBSI5+hvueeeypfjtT+bqMjgwU68tlnnw0PPvjgv0z+PZHeRVCOsbD9c5/7XPj0pz8dy7FPESrJGGNMa5E/Tu8e4LPx3fhwfHnq28lrXTxqvuDYBx54IM4pzCeqP0tP2zuFjgsW6DAM5pFHHglvvPFGQ5GgjAjISfwJ1A9+8IP5otE0UjXGGNN68Ml6LwHw2fhufLj8OZDX47/T8swlzCk83ta2bqMjggU6Tp1HcMCzq7vvvnu+uwUs1zIQylIOg1OdvFnLv0QCx+tOhZIxxpjWkvrk9G4yvlt/OU3Ct2teyEN3lZWTmFN4LMEcQ/2qU+icnUpHBAsyEhLGwHsKDz30UGUfHapO74n0NhUGAUSk++23X1w2xhjTfuDD8eWgDyvh6/H5PaFAQWWBOYX3F3RnWalbaOtgIY3qWFbHPvXUU/H5krbVA8ZBWQwBIyHfbbfd4t9NQzcZhTHGtDvy2fhwfHnq2/H1eRePKZpHmFOYW6hX20S63Km0/Z0FdRK53k+47777Yp5O8BhG3oTPPgyJOqiLr4DxvXH+tETH5R1vjDGmGKQ+Gx+OL8ena57A1+f5c/alwYTKam7RPAHKO522DxZSo9AyH9BIO7CezkzLYEjctlp//fXjsjHGmPYEH44vx6en/rzReYFl5hZI5xvlnU7bzoR0XNpJLGMIRHyjR4+OUWH2NlOecXAs5ZWvssoqlRcboVsMwhhjOoHUZ+PL8empj08DhyzZuYLyJOaWancmWM6bXzqBjrhsVieR80sIni3xMQ4Zg372mGccMh4MYdFFF43/kc4fRWWNwhhjTHuA78aH48vx6fh2Tfb4/J7QXJHOHcwpzC3MMemc0y20dbCQdhgdj2Hwe1j+/EM/cQHltTqW/bz8wn+iE4lSZzcZgzHGdBqaH/Dp+Ha94JiH9qdzCHMKcwtzDHNNOj90wzzRtsFCerWvZTpsypQpsWMVNaadmNeh1MF+quLfy3iD1ncVjDGmvcGH48vx6fq34Lm+vmffXm3eYE5hbmGO0ba0jk6fKzrizoI6iZzIT9FgM7z33vsx+lxuueU6vvONMaYbwJfj0/HtupBsBuYW5ph0zoE0uOhU2jpYEGlHvfPOOzGnExuZ7KmD51MYErepeLZljDGmM8Cn49vx8fj6Rib4dD7RHAPdECSItg4W9BIKqNP09cVGgwVQfRyX1m2MMaa9SR8rN+rf0/lEc0waKHTDfNH2EtJh6si8KE8dnQdGkBpFN0WNxhjTqciXy79rws8jb86od97pJNo2WKCDanVSI51YrdO7xQiMMaaTqebb84KBLLXmAvZ3+nzRtsGCOjrtcJbTl1dkEKR6OlvlVNaPIowxpv2RL5d/b2ROyJZljmGb0HK6rRPxbGiMMcaYXBwsGGOMMSYXBwvGGGOMycXBgjHGGGNycbBgjDHGmFwcLJh+J/s2sd5MrvX2MOXSsumvU1hWnezr9DeRTfFI7Q5bTO1T/1YI9dgn+/X2vciuG9NKHCyYfoefGunnRjhA/bxVk31PsJ+UfppVztNO1BSN7EQPCmq13hPs1/jQMuOk1nHGDBQOFky/g8Nkwk+dKcvplVg1UscJCjLSeowpEtgmSZN8LRsXWZtmnTFT7/HG9De2RNPvaNLXP3myrLsNecjx8k9vCjiGDRtW+ZtZY4oGtrnUUktFe8V26/msMGiMkDiOsaJxYkwRcLBg+h0cJ05vgw02CCNGjKhcMdV71YTTpCx/L7vWWmuFxRdffN4eY4oFtomNYquybyb/Wmg8kBgjjBXGjOowptXYEs2AgONbdtllw3bbbVe5gqqFyunuwsorrxy23nrrGGwYU0SwTWwUW8Xmsd16bB1k74wRxoqON6YIOFgw/Q4OkP+R5xbtIYccEm/T4lTrdaI4TK6wcMI77LDDvK3GFJOPf/zj0VaxW6VaMBawcR6zMUYYK4yZeseIMf2NgwXT73CFJLbddtvwhS98ITrG7B0CtsmxskzS8siRI8P3vve9uIwDrdcJGzMQpPaIXZ900knx7oJsPLVnymlZsE7Zgw8+OI4R1VXvOw/G9DcOFky/wxXSnDlzokPkeezRRx8dnaKe6+IkcY66ikqXF1544bDpppuGiy++OKy55ppxW9bRGlMUZLu8t3DJJZeETTbZJNowKMhNl7F97HnRRReNY+LrX/96HCPs49HbQgstFMsb02rsdU2/g2PEISoAWG211cIPf/jDcPLJJ4ctt9wyOlMFDaDl1VdfPRx55JHhd7/7Xdhqq63i8UrGFJHU1rHZc889NxxxxBHRlhUYgJaxfcYA44FEOdm4yhpTBAaVjbJtPS9NV6Sul4GuueaasPfee8eBlr4gVI+YlKXc+uuvH6644oqwzjrrxG2qwzQPdxa4SkK/JPpm9uzZYezYsTHdd999Yfz48fG26/Dhw8NGG20Uneh6660X1zlGfaqgwpgiIr9DDhMnTow2fv/994fHHnssTJo0Kd5tGzVqVLTxddddN/octilAIGcssM30DvmccePGhQMOOCCMHj264utrId+f+p+rr7467LnnnpVt2t/p84SDhQTKUs7BQt+DXgkYuJKSE5VeCRpmzZoVl6VvAgv6kMSx6k87T1N0sFd9GwSbVc42xgD7STBkyJA4JrB5bQMF12D/0zukbwcLvcP3uUy/o4GkQEHrXDmxjsNccskl43NblskJCnSlRY7zJOdYkjFFRPaZ2iy2zt0wllMbx+ZZZgwwFlLbVgBhTFFwsGD6HZyerqxYVjTOlRNOVAEEzhQnyX49amAf4FTlTO1ETVGRbWKn2KyWIX1PQYEv9q1AgmN1vOzetm6KgoMFMyAoAJBDTJ0g+6o5RbYpaADWFWgYU1Sy9pxn36k9s65kOzdFwxZpjDHGmFwcLBhjjDEmFwcLxhhjjMnFwYIxxhhjcnGwYIwxxphcHCwYY4wxJhcHC8YYY4zJxcGCMcYYY3JxsGCMMcaYXBwsGGOMMSYXBwvGGGOMycXBgjHGGGNycbBgjDHGmFwcLBhjjDEmFwcLxhhjjMnFwYIxxhhjcnGwYIwxxphcHCwYY4wxJhcHCxkGDRo0b8kYY0ynYR/fHA4WEkqlUlhggQWiMZHef//9eXuMMca0K/hy+XV8PL7eNIaDhQSMCBR5vvfeezYqY4xpY/Dh+HKQb5evN/Vjjc0DI8KoiECVL7jggvP2GmOMaVfw5alvJ1fgYOpjUFlpbXvpnHa4bjNdc801Ye+9946Ro7ZBLTExJqLPwYMHh7XWWitcfvnlYd1117VRGWNMGyMfPnbs2PCpT30qPP300xVf/+67784rVZ10/tCccvXVV4c999yzsk37O32ecLCQoGPWW2+9cP7558eggeM73QiMMaZTwfeTCBK++MUvhjFjxlR8fS3S+cPBAlK2KWkH9UWwQFnSMsssEz7xiU+EpZdeui6DMsYYU1yYDyZOnBhuuOGG8NZbb8X5oN45ASjrYKEejRWUtIP6IlgAyqtsumyMMaY9adavp/NHtwcLfsExQ2pE9RqUMcaY4mK/3nscLBhjjDEmFwcLxhhjjMnFwYIxxhhjcnGwYIwxxphcHCwYY4wxJhcHC8YYY4zJxcGCMcYYY3JxsGCMMcaYXBwsGGOMMSYXBwvGGGOMycXBgjHGGGNycbCQ0Ol/BGKMMca+vhn8r5PzoFxqQCrPtjZWkTHGdDWpD8/6+HrmBaCc/3XSVMAQUjCEWsZkjDGmuKSTusj6elMb31mYR1pupZVWCgcddFAYMWJE3GaMMaa9efPNN8Oll14aXnnllabmhW6/s+BgIUHHrL/++uGKK64Ia6+9dscbgDHGdDr4/6eeeioccMABYfTo0RVfX4t0/uj2YMGPIRIwhCFDhsSOf/fdd+M2lp2cnJyc2jcBPp1lfHw9gYKZH99ZmIfKk6+77rrhL3/5S1hnnXXivsGDB8fcGGNMe/Hee+/FfNy4ceHTn/50GDt2bMXX1woafGfhA3xnYR4yGuV0PAZAoMCyk5OTk1P7JXx4Oplnfb2pDwcLCTImkJEZY4xpb3TRJ9JlUx8OFowxxhiTi4MFY4wxxuTiYMEYY4wxuThYMMYYY0wuDhaMMcYYk4uDBWOMMcbk4mDBGGOMMbk4WDDGGGNMLg4WjDHGGJOLgwVjjDHG5OJgwRhjjDG5OFgwxhhjTC4OFowxxhiTi4MFY4wxxuTiYMEYY4wxuThYMMYYY0wuDhaMMcYYk4uDBWOMMcbk4mDBGGOMMbk4WDDGGGNMLg4WjDHGGJOLgwVjjDHG5OJgwRhjjDG5OFgwxhhjTC4OFowxxhiTi4OFDuD999+PealUigm0jVzblIu0fBFJ2/7uu+/mtpV9krmdSeUgl9xZ2Ysmb9pXWZAhlamncu1ELTnY995771WWi9RXWWifktbV3nR7tW3KTefjYKEDWGCBBSoDmMSgZhsMGjRovoGNAyPJgZO0LU3sb2WiDUBOGwcPHhxlUZtJIHnZJ5nbAfWVliUvcgA6YBm5Je+cOXPC7NmzY84xyFuUvpINpm2kzexT31EWJCP7Uh1ouR1AXuRARrVbyyT1HTKSgDyru4FOak+aZF9aTvtBy+TInO6XnKY7GFTu8PYZoRlSY8WIWb7mmmvC3nvvXTFs7a9HTMpSbv311w9XXHFFWGeddeI21VFUkFPOWrCcbifHiU+fPj3MmjUrzJw5MzoPHaO8EX31J7RjwQUXDEOGDAmLLrpoWHzxxaPzTeWSbOo3EmWKjNoOqY6Rgf6QjCD7xYm/8847YcaMGbHfFCyQ1F+tRm0hLbTQQmHo0KFhkUUWiX0nmSS3ZKJ/JStIllRHRYX2S17JTrslj9anTZsW+44xl463ViEdp+1UrvFGYrwtvPDCFRtUn6g8pNuLDLKSxo0bFw444IAwevTo2PZ6+kLyUhY5kffqq68Oe+65Z2Wb9qe66UQcLCRQlnLtFiykjguQAdlx0hMnTgxPPfVUePrpp8Pzzz8fXn755bht6tSp0YFRtppu6tFXf4IsTDg4raWWWiqstNJKYY011ohp7bXXDssss8y/TEKi6P0l3aY6ps30meR54403Yp8988wz4dlnnw2vvvpqmDx5cpgyZUoMGHQM5dN6WgHtUPvJCRLos2HDhoUVVlgh9tmaa64Z1lprrbDssstWyiFnVgdpXlSy+pY8jEPGFpMS/abx9vbbb8fxRrBXhL7KwjaSgoSll146rLzyymH11VePY41+Gz58eJSPPkvrkJ8pMhojDhZ6h4OFBMpSrh2Chaw8yCrnyxUMA+Oqq64Kd911Vxg/fnycbJhouCqVPJI3Sz266m/SNrDM1SoTEJPNqquuGrbccsuw7777ho033jg6q2pOq+j9xjJJNkbw9vjjj4frrrsu3H333bHfXn/99Rgk0G+gsoDM0Go5JZPaJrmAfiNoWG655cKoUaPCRz/60bD77ruHDTfcME5OWR2IVstUDckkNHmSP/roo+Gvf/1ruO+++8KLL74Y+40ggbt5GpdQBLmqtYFtaiN2xV0F+m355ZeP/bbNNtuEffbZJwYP9KnkJk8par+RHCz0krKQbUu54+YtlUplw43r5Y7EAkrlTox5uQNjYrlWUrlysFAqG1SlziJCu5TKDqk0ffr0UjlIKD300EOlI444olS+MiiVr8yjHhZccMFS2TFX5JNOetJLur9VSe3WOu1iWzkgiDmylSeg0qc//enSbbfdVipPpqXyFfd8eiki2JRy+ot2Tps2rfTkk0+WvvCFL8R+W2KJJaKcyFx22hX50yS9FCll26h2IgPLyIRsyIisyIzs6ABdpLopIqltYWvYHLaHDWKL2CQyklJ9yJbJU321KqldacpuZ70cFFRkQTb6Dd+Cj6G/8Dn4nlQvRYR2YVP4dHx7NXl7SpRTWfqPnDlGdYqiyt6XOFhIksq1W7DAwH3jjTdKJ510Uql85V2RRZNtKiN60USkJB1lyxYlqV3ktF99K0c2fPjw0r//+7+Xnn766ejAU90UDTkYchxt+WqndPzxx1dkRKZmbLdoKW13KkfW/pAdHaCLVDdFI7UpbAxbw+awPWSTTMiXlV3LRUrqk2z7sv1DYp2ksvgYfA0+RwGvUhGhXdiUg4Xe4WAhSSpX1GBBxql2MVDfeuut0mWXXVbafPPNY/urDfZOTZJXV20bbrhh6aKLLiq9+uqrFf20qg85p/pL7SCXc33ttddKF1xwQenDH/5wbD9XcdVk7OSEnSI7OrjwwgtLr7/+eqXfUp1Bq/tR/YZtYWPYWmp79fqYdk/0meTF5+B78EHSj/qJvCioPQ4WeoeDhSSpXFGDBQ1Icl3dnHjiiTHSV/QvuUnpcqcl+krykUv+RRddtPTVr3619Pjjj0cdqQ/TgT0QcE7OrzsdnJ/E+vjx40vf/OY3SyuuuGKUg3Zn5euWhOzoYKWVViodd9xxUTfqN/VdqseBROdXv2FT2BY2JntLbbBeP9OOKfUl6XjD9+CDdFdPPorloqA+dLDQOxwsJEnlihYs0AYGoRLteuqpp+Jz36WWWirKSqL9GsipPJ2W0r6V3FomLbLIIqX99tuv9OCDD7bsmaqcJrmcKOmxxx4r7brrrrGNtJm+4uo0K2O3JE066ILn4ugGHUlf9B+5dDlQpDZDG7AlbIp+k52ldkeOPCxnZeyEJPnoK8krPeCD8EX4JHyT+k791mpoA+1ysNA75n+V1RSWsqHGt/1Jb775ZviP//iPcPnll8c3rsv9GN/EJZWNNr6lzHKngozoA7lZJtcyiV8VXHvttVFHTz75ZNRF2XHNO7r/Qf+gdtJntOHhhx8OhxxySLjzzjvjzx/T/uIN826jHCRV+gxdzJw5I+oGHaErtlEGHVIGpNuBAJuhDdgQtoRNYVtqc2p35Gk7Ow3kQxfoX7LKfvFB+CJ0hG+SzZObzsG9WXAYmMpxXnxUqRzFh5tuuilOOBqQ2UHMYNWxnYjkRlYmWiYVlklQvpqPPxs96qijwltvvVWZjAdCJ3KU5EC/jR07NnzrW9+KP7HjIz2aKMmB9nYbCuCki8GDF4y6QUff/va3o85UJqvT/kQ2gs1gO9gQtqQ+kp3RbsrI5mSTnQq6l+z0Fz6HZeTGF+GT8E30If0mPXayH+omHCy0EXzw5atf/Wq45ZZb5jnXuY5TTpRBqcRAHgjH2iqQX+DEFSzJMeHEkP/ee+8Nhx9+eHjllVcq+wYCziWHym/uTzvttHD77bdX+kTtp+0D2a6igeyahNEJ/cYkjK5++tOfRt1l+3Yg4FzYDLaDDdFvtE37SLQrDfJSm+w0kB/5JDuJbQqQtB/f9JWvfCX6KtNZOFgoKAxG5SS+AHf22WfHj0XhtEg4KwYoeQr7OCa7vZPIOmbpRKSOjY9TnXLKKfGjVNonVKY/UBv++Mc/xn7jaiudGCHb7m4jlV86mT3vvyWuvPLKqDt02J+2nPa/2oCtYDPYjmwktZtq/Zbu7zTka7Iypz6IwIH92Dq+Cp8l3UGqZ9N+OFgoGAw8OR0GF4OPSYZnuRdccEG83cd+7RNypungrAXHK7UrklU6Aekm1dOf//zn6PjZxjr60i3u/pCf8+I8uTX73//93/HWrK7CUiindncjWfm1jK7QGbpDh6z3l55kDyTZDV9jxGZY57yyG7VB27TcriCTUj0gq+SVzwGORx9sw0fhq/BZjLFUb5SR3kx74WChYOAUSRq8DLYJEyaE3/3ud+G5556bb2Cng7AZNPB7U0c7gHw8ez7vvPPiy2qso2M9EuhL+alLkw5Xp9/97nfj/zywzU6yfjTxoDt0iC7RKdv6ur9kDyTOi438/ve/jzbTl+cqIpK/N3Kmx2pc8b8Y+Cx8F30G9J/0bNoP91rB0MDVxMLybbfdFm688ca4zO1ZBQkklk0+6AmH9cADD8S7C1z5sE37+lqHcoa/+c1v4lv9PIPvDwdZpL7vj7agM3SHDtGltvUlGktAzq8dsBFspa8Dk05Ffa+xxGMk/Bc+C98lHUqf1ml74mChYDDY0sE3adKk8Nvf/rbyj3VE7Qw6lWmG9Byg9aKl3lDNIXFbm9vL/JsjzqyvnVZaH39ac8kll8Rl7g6xrz/OV01vrUj9IRtJj4rQJToV/XE+bALbwEawlSy9PWc1vRUhiex6I+hYfBMBHbrCZ/HuAi87st6b+k3rcbBQMNJJjEF3ww03hAcffPBfJjeCBg3ARqhWnnqKlqCvnQt1PfbYY+Hmm2+u1Euu8/UF1MXdHyYc/n2QPtTVcF/LovpSvbUiQdqevkB1SX/oEp2iW52zL6AuzqUc28BG1Gd9Qaob6axIKYva2gj4J+4CgfRJ4g4NPkz67Omcpvg4WCgoDDgG4Pnnn195g14/T2JfM3cX0vIsM7iV+L14kZLeJ4BG5KxWVtvIuUXK29rcbgYcVyP11wM/ueMnZDzugL5wjrSRhNNFN6Si9J3aoXbRRrW3t0h36BKdotu+hDbqHNgEtoGNiGoyNCJXWhbdVNNfK5P6jpS2tVEZSfJJ6BNZ8VX4Ln7Rwj7T3gwqd2zbhnk0XUatSfSaa64Je++9d3RY2gb1iClDX3/99aPTWGeddeI21TEQcH7JxR0F/kceObJvFdeL2k+inqFDh4Y99tgjfPKTnwwjR46M/1uvesmLAvK+9NJL4R//+Ef43//93zB58uRKOyHtX8lWC5XFMf7tb38L2223XXRq1Kkrn2bQrVeg3dddd104+uij49Uw9aeOMq//qEP9INnYxvHLL7982HnnncPuu+8eVlxxxUq53rS7L6G90iMTOjrgVwx8J0HtpIzkYVueLtgvpMNVVlklnHXWWVEHmtykJ0iPqRcdT/133HFH2G233Rp6bIQ8KisZqU9tGzZsWNh3333DDjvsEMcb7S4KtJl2khMgvfzyy/EuwNVXXx2DM+m9Hj1kUb3Ii174qNXmm28+n34GCtpB4jHWAQccEEaPHl1pXy3UTsqqf9HPnnvuWdmm/QMpU0soC9m2lDtu3lLn/DcE5ys7q3jun/70p/O1q5mEHsoDNv6r4T777FOaMGHCfOcQAy1nLdRG8vLkUzr44INL5cAmypPVh9bV53lJZfnzG+ompXpohGrHT5s2rfSjH/2oNGTIkMp/HpDqaRtl1F9K/F/CgQceWPm/hOnTp8fzcE7WiwLtkT6mTp0a20abaTsyIB86IW9EH9IfuuR4dCsdQHreZkiPxyY4L+fLtiWb1P5qZdlGWw855JBSeQKu9FWzbewv0vbQRiX+enqvvfaq2HA9fdVTkn7wZa3SA+fj3P5viN7hxxAFpGycMdLn6pdlUrOU+zgsueSS4aSTToq/feZKp2zYcR/1sr9s9HFbkRKUB2dsG1fV5557bjjjjDPCcsstN59OJAMoz0PH8sZ72XFVtvUGHU99/MSPZ956dJS2DXlqQRnkR+7FFlsslCewcM4558S7XZxnkUUWiftYVrlUb61IaoP0QLuRd7311ov9xmeul1566XibnzJcsdYCPWT7FZ2iW+4ycT6h8zaDjqXvsAnW66kvbZvK61hs9PTTT48v92G71K0yqd6KkOg7ySC7wsYuuuiiaHv4jt4gnVx//fXRp0kPpv1wsFAw5IS4lfvUU09V1puBgclgP+yww+JnohdddNH42AFw2Bq4OGbWyYuShNpYvsqJ353/5je/GYYPH165nYt+KE+5enSlMtyS5DFBb/QLah/1sMxv85955pm4jPNN21brXJRTAEM/ISv/kUC/4dhVDznr6KAI/aY2pBOQAgImHr6TcMwxx8RHYJRjfy2kL2TVMSyjW71dX0uf9UI92IJ+bVFPvWqb+gToD4Ki4447LtoqsrNfugDprAhJ/Qa0k3cY0DPBHn2Fz/jSl74Ullhiibi/WdAPvzLhMYdpXxwsFAwGFunZZ5+NP99iQOOAG0WDe+ONNw5HHnlknGDlJLL0xhH0F7RJSc6YuyKf/exnw0477TRfm7W/HqRfdMpVaiPH9oTqRLdMZDhFTW5qfzW9Z6FNlOOYXXfdNXzjG9+I69iA6knlLgpZHdJeyaygDlnoN5Wtx6Y5XjKT0ClBNAGZ9JDNm4FzYAu0iWW1sRYql7aB90oOOuigaKug9qtfi0baJrWVRB8us8wy4d///d/DhhtuGPc30350Sl34Mnwa56in703xcLBQMHAq8MILL8SrTK03MlBVlkF64IEHhtVXXz1uY6ByK5g6qw1YOcuioPbQXm5hIg8vie2zzz7xjgkySS5SvTrScdy5kX6bQedL28ALfTyKoF62M8FpXz1wDFd2BHhc0al9yK46yUmN1Nuf0Ka0XVonAQEDd0f490buEKlsLSSfAi+OQbfoWPt1jt5AvdhC2uZaqJz0Tx3YJC9XY6P0FzYrOYs0QdLmbHskB+3WuEPGNdZYIwbobIdG9K2y6ABfxt0btkknpr1wrxWU1157LQ4wntMyuDSYG4Hbiry1y0DXIMVZ43w1YNPBz3K63mpoI4k2cVteOvj4xz8eRowYEZfZhnxyZvWCbtExxzejW+A4HCvtY5m+4qqXN8nZLodcb9vUlg996EPxao76aGd6POeSM5duioB0IJlZJ9F2PaveYIMN4p0ula0HyS598qEf7t5gwzqX9NEMHEfSeGsE2SdQBza5/fbbx3XaxPiTHlSuCKhNQusk2k1b0TsysW2vvfaKsjSKjseO6S+CPLaZ9sTBQsFgsDJQp02bFgdWOmhroTJyTLxgNmrUqLicOjbdGs5SzzkGGrWJnIQMvEC22mqrVeRBZ6RapHVBeju7GSem9giW33777biseqHeuws6hp/scleB8jhpZEvr4zzpeYsCbdTkLmg7ASoTMTKtu+66dela+kJ3Qjrg7kIKukj1Uy9qB8diC1pO8zzURhJtwCZ5oZFj0z5qpm39TU9tStus5ZVXXjn6EmhEJpXBJrAD/oVSy6b9KJ7H6XI0wHCuDCo5ozx0TFqObbxsxeBOB3atutoB7jLwPBXHg2zSUSfIBtzO1suL2IAcdDtC25EBWZCpt2/XF4XU5rBB5MMm9QJxO5OOI2SjD/El1fxIuq0a0hE2oDs3tY4xxcTBQsFgYDK4slejyutBQQZXpWmwkNbVSH1Fg7bztja3NzsNZGPCUYDQzv0kJAMypY+TOglsEZtsZ9lou9qvXMECvoRt+JZ6SesiyafJtk174V4rKBpoDNZ6onfQwFZ5HavBmm5TmXYEWbhKJU/l7QTUV0pcsbY7yJCVq1PA9rBBZJJNtitZ36C+SreRp2Oulrzpse2sG+NgoZCkA7OeAZYOxjTyZz09XuXanfmdVfMvtxUR9Tm5UjvLV00W8k4BebBBQC5ssxNI+2iujB/YoO5cQj19mfZ5J/V9t+FgoWBoEGbzRkiP7dTBqa8Bpuppd1nVb6kc7d6Hc/vog06SLOm2dmT+Ppq7rj8n6zTSPmym37LHtnvfdysOFgqKBmjqlHpCg09lyUmdcpVTjVRGyV3LCWX1VDSnpXaJ9AqunUGG7LPurKytplHbSMvLBosmU1+SlVF5PfZJWcp1sn66AQcLBSU7KOshHbjZxxGdBs5Lk2lv5SuKE8vKQbs6IeBLAzpRFJvsbd/L/rDFTuirLGk/NetTpOOijDPTHA4WjDHGGJOLgwVjjDHG5OJgwRhjjDG5OFgwxhhjTC4OFowxxhiTi4MFY4wxxuTiYMEYY4wxuThYMMYYY0wuDhaMMcYYk4uDBWOMMcbk4mDBGGOMMbk4WDDGGGNMLg4WjDHGGJOLgwVjjDHG5OJgwRhjjDG5OFgwxhhjTC4OFowxxhiTi4MFY4wxxuTiYMEYY4wxuThYMMYYY0wuDhaMMcYYk4uDBWOMMcbk4mDBGGOMMbk4WDDGGGNMLg4WjDHGGJOLgwVjjDHG5OJgwRhjjDG5OFgwxhhjTC4OFowxxhiTi4MFY4wxxuTiYMEYY4wxuThYMMYYY0wuDhYKRqlUCu+9915YZJFFwuDBg+P6AgvU302U5ZgFF1wwvP7667GuQYMGhffffz9uJweWi0za1nfffbeyjjysv/XWW1EutqOneqB8mqc60LZG0PHSLUjfad31wnH037Rp08Ls2bNjHSTpoR1BH9LFnDlzwvTp06OMzeqbY1MbTpcbJW2Djte2etunMUp5bBLbRGbZBOuQ2khRUfvISbQZuZDh1VdfreqPaumJY6hnoYUWCkOHDp3PHkx74WChYDD4GIyLLrpoXJdzrMd5UUYDkQH+8ssvh9dee61yvAa6ypAXNQFtxrngcMiBZZzy888/H8tRBvnYXq+OKA9LL730fOdrFnQqB7rYYov1ur6xY8fGSRVq9b3a3+pUDbbLflkmCBozZkzcV09fVYO6NDboc+m9WdR+bAFq6VtQRhMhy9SBTWKbbIfUdlWnzlfEJDnSHPm46HjllVcqY1D7tJwHfkj10G8s61jTXjhYKBgMPgYWzgtHI8dTa1CKtByO6+abb47LbCdpwIMGblET7VWe6uGf//xndF7cPVEZdMZyLVQ3k8zyyy9fOb4Z1Lb0vCNGjIjtaga17bHHHgtPP/10rCftryxqexFSNbQdGZAFmZCtp/L1wBXqcsstV6kDHWjCbgaOow5sAZtgvZ660vOyjHzYJLbJOmCzLKuM6i5qEvQX7ZUc+JCJEydWymh7PXAMeqDflllmmXlbTTviYKFgaOCussoqcYBBraundKCzLMdEVH/RRRfFuwtZR5geU1TUXjkv8kmTJoW//vWvMRCCRhwXqDz56quv3usrU+mRepgwVlhhhbDUUkvFbY2CU0XGyZMnhwsvvDBuo96eZCx6H9JuJlSBLU6ZMiVua1bvSyyxRAwWFDxCb/VAW7CF1DYaQeWxSWwTG01tVnbcLqQ2je+4+OKLK3cIsjqqJZf6mbExatSouGzaEwcLBYNByABbe+21w8ILLxyfXde6ctLAhdQJs/2ee+4Jl1xyScV5qZ7UiRcR2kobSTgayXXTTTeFa6+9Njqv9BYn+2s5LiEHvtFGG83b0hyp3oH1YcOGhRVXXHHelsaQPMhy6aWXxsmVSVF6oP7sOYuI+k7tJegl+PnTn/4U9yMjfdAM6BYdU69sgvp6qxdsoZF2qZ+Qk2XZI7Z54403xjLsx3bT/isytA9ZSIAu8B1333133Kf2NzLWkBu9YAP4NCi6Hkx1HCwUEAYTTpGrHQZlPYNL5RicKTwn/s1vfhP+8pe/xBfM9OIckBc1AU6J5RkzZsS2/+Mf/wg//vGPw5tvvllxVpow0uPy0HE4Ll1N1uv4qpGeF6fI46M111wzrvcG6vrKV74Sr1SRHXSudkiCtiMDsrAsO21W5+uss05Ydtll57Pz9HyNovZgC5rM6mlbKqdskOOwTWwUW0VebJdyWTstakKv+Ajajs/Ad+BDhHRDWY3PnpBuYa211mo6iDbFwMFCwZBT4WWgj370o/HKMh10PZE6I0gHNS9eHX/88eHXv/51ePbZZ6MDA64cSDgIpWrbWpXUFp4Fn3/++eFLX/pSGD16dGU/MrKfnPV6ofxHPvKR+IsTju8t1EfiKpJ3FtZbb724DOlEUgv6SnKT85Ijk+x///d/h3Hjxs032UoHRUu0jTYy4dDms846Kxx11FHhnXfeifskG6kW0pl0iE4JFoYPH17RQ19AW7AFbKKRejmO8qkNkniJE1vFZrFdAr9U7lYm2pFti7YB/YSPwFfgM/QiMUg3HKP1PChLGXzY1ltvPd9L26b9GFTu0L4ZcS1AxggYMMvXXHNN2HvvvaNBahvUIyZlKbf++uuHK664IjomtqmOgUADkXbcfvvtYeedd66s1yNDFvRA+6kXh7j55puHnXbaKcrIVbAmNcmpczRzrr6E9vIMmF8G3HnnnfFKjQmINsqxNYpkRCdXXnll2GOPPebb3htSvV1++eXh2GOPjT83o950XyN6VZsWX3zxsMUWW4Qddtgh3rXgCi1tbyN19gfZtkyYMCG+zHjbbbeF+++/P16ZNtpG6lS95BzP+yC//OUvw6c+9an59vUG6lXbeISw//77R9tLtzcKkyPH8hhx++23D9tss00MIHnBr9UTZVankpGAhpcYCcZvueWW8MADD4SZM2fG9lJGfqkROIfk5SXJj33sY5XzDqQeJCfB6wEHHBBlVDtqIX2pzejh6quvDnvuued8crCssp2Kg4UEylKuCMECMFi5u8Ab5NBMV6EHEs4A50UdrHMFzO+eZeyQ6qqZczVDT7rl/EwyvBBHkED71RfNOC7B8fQvgdiSSy4ZgyXO1VM76kX6In/qqafC4YcfHt8XIbCRjtmncvWidlEH/Ueb9cxeNFpnX5PqjmVe0Hz77bdjv/U2sAP6mwmYK//zzjsvPi7QvvTczSDd0U7azITGnYFm+krQVzoe+6LfeOmVoK+n9jZ7rkZJ9ZqeEx1zx5HHKPKb9B/tZ72ZMafzbLzxxuGuu+4KQ4YMqWxL/U5/o75wsNBLykK2LeWOm7dUKpUHe1wvdyQWUCp3YszLHRgTy7WSypUnk1LZoCp1DiScT+clP+ecc2K7JE+jqexkKzogsV52APMtZ8twroFKnLuntNBCC8WcNlWTrdFEXZzzv/7rv0plx1gqByDztN576C+lOXPmlI477rhS2TlWdMr5eyNHWof0k9Vlq5Pa1Rs5lVJ5SegSnaLbVNd9BbaATWAbkifbpmaS+ku23FNK9djfSTpV21IfwHK1MtVkq5V0/Nlnnx19GQk992W/1QPn49z4dHy72pZtb7UkGVhGL+TMMapTDLRMrWDgwjtTF2Wjq0S9ZeOMd0m4Ema9GcoGHXPqol7qZxvL5CS2pXCugUpqQ7XEM3py2s5VCbBMagbk5EU2Hj+kVzl9QVpX2bmGgw46KP7Ej/NI982iY6mHKz10gizV9NnKJNuijZK5t3JTDzpEl+gU3Yre1J2FujgPtpH+jLJRaC8J1PepLfeUsrrsz5SiPiMBufyB5NC+ZsB37bPPPrEuzq3ctB8OFgqGHKwGNu8V8LIUjwyaQQ4VB0DC2bJNDkEDV+cb6JQHjoVEW7klCpKjGXDe3IZkMoD+clzU+eEPfzg+W581a1ZcV782g3SF3Hocw0/RyLWv1SltE22krdrXDNIVx6NDdIlOm60vD+rEFgDbwEawlWZI7RObZVl2nId0NdBJ51aO3vERLEsO9UWj4LPwXfgwnaPZukzrcbBQMDQ5MqgYYKzvtdde8W3i3kB9JBy5Bm5KEQdx6nhBMjTbVl4y4wU2nh2nOqimj2ZI20W/8UsG3nsBztFX56EerlTJi9BvtCFtUz3UandaDzpEl+mE2x9yY2vYBjaCrTQD7VISWTsuCtV0iN65k5CVoRnwWfgu3Q2iPuqvFTiZYuJeKyAMKgaU8tVWWy0cfPDBYaWVVqoM4GzeEwxOEs5KDli5UJmikrZPy3lycxscVAZnxZf/PvvZz8aXrdiOXqkHvdTSYSNQF4mJk18u/PCHP4y/QgHOV23CI09vr+eR6iHNW0m2DfW0iTLpJCJdAMuqA92hQ3SJTrNl+wLOpfZQNzaCrfAyqfpL5+TuSU+o3Wp7ulxEqrUvbbsCnHplSPsFX4XPwndpu3yaaU8cLBSQdECxzNvUn/nMZ2KUnt4elXPrFuS0kLknB6Zn+nJM0hE/YeP3/uhPTpDt6eTdl+iWPH325S9/OZ6HpHOzHxk0YWp7I9TrxAcC2tJoexSooReO1UTMsvSF7tAhy3kTdW+gDSSgTdgItoLNsF02ROLOnPosC+1WPY3qoqjUI0dWRwR49Bk+C98lnZj2xsFCm8C/GZ588snhQx/6UMW54tiamWTanTwHpmf60g+BA38SxJfouMUMmnSku/5w7NQpx3nMMceEHXfcseI4CWi4StakQ1ndfegmUpnRhXSCfaMrvitx9NFHV8r1Vz+BbEG2ga3wYSJsh32UU5/mvfDXH20sOsgsHdF3G264Yfj+978ffZbpHBwsFJg0IsdB8VGac845Jz5PZVDKsabluh10geOSfvhNPp+tRXdyZgQUKpvmfQX1kTgPgQG3Yr/3ve9FJ8r51We0h36ljL6q2U0gM5OzJl/pDf3wXw0Ex7xwiH4UBJL6EtWnnPNwfvqGj19hO3yqWO2Cvm5DOyO9MNZY5tcPZ599dhxvaVBlnbU/DhYKDoOMxGCETTfdNA7GrbbaKg5GO7D5QR/SxQYbbBBOO+20qCvpkFyTQerM+hrq53zkpG233TY+e8eZphMS7SG46db+ow+kA3TCOsHwD37wg/jlQ+mPgKE/4bycR/YjW8F2Tj/99Bjosa4+Mx/4JvUbusI34aPQk3RofXUGDhbaCAYl8CU7JkE+28ygFB6UHzgwfmZ36qmnht122y1ORFzBSj/kmhjI2d/XpH3BeUi77LJLvLVN27Sdcv1x/nZBwYJsm8+RoyM+cy69qb/6A3Sf2oL6jZwAhfZ94hOfiLbEJMh2lelmpAP1C/2FT+IXENKn6Szco22CnJQGIZ+B/sUvfhE/2pS++NXNjgzZce5ckXKFgwPjt966KwOU0VWs6A/HpolHzpScftpuu+3if0foc7Hd7Fhlq+iAPkEn/GcHOuIlQ/arv1Jd9iVZO9C5BH2GDWFLPALkDpECnG4llZ2AipcZ8UW6EySddrOOOpHu9FJtigYfgxEnxsuOF198cfx3OP7RjUmRfZRTEtmBm11PSY9vdUqduUhlBOTGaaGDI444Ilx//fXx529sx/nj3CEtD9RTrf6+QG1UnvbNyJEjwx/+8IdwwgknxA/WgNomVBay+1LYV4RUC8qkMoG2oYNvfetbUSc861ad7AMdp/W+hnpVt2xD7cR2sCG2Y1PXXXddOPLII6OtYXNp+Z7aqPYXLaVkt1Uro0dBsmVeAsX34IN4vKbtUE0Pps0pR4JtS3kQz1vqnP+GqAXtUbtIc+bMies33HBDqXxlVlp++eUr35pHnvIAr8hFznbtS2UvYkrbqDZrm2QkHzFiRGmPPfYola/YS7Nnz476eHfeN+hZl96KgvrsnXfeKV1xxRWlXXbZpbTMMstU5FMf1eqnvH0DnWq1MysTCZmRHR2gC3SCboqCbAYbYhmboo2sY2vYHLaX2mIqr9a1TctFTWk/qb3k8iGSCR+D7DfddFOlz6Qr1os01oD20C7/N0Tv8L9OJlCWckTJrfrXyXqQXGoX6/DGG2+E//f//l8oBw7x74FZT3UELLNNxxSZtA/LTmq+N+KRYfjw4fGWNc+U6XOu2DlGMnMs6xyXPqppJbQNyo6m0lb+ypp/suOOyH333Rdef/31WEZlQf2Vbisy6B+QUWgb//Ow5ZZbhk9+8pOx33Q3ARnpZ1DZVsPPObmili2ltvXyyy/HfmO83XHHHWHSpElxH2VIHEc/s8yx6sMiQzslH0gecn5Gynij33hktOyyy1ZkS6FskVB/+F8ne4eDhQTKUq7owQLQTsmPnMiLYwOChEceeST+LeyNN94Yxo4dG/9+F0csJwCqoxpFkDnbBtrKb7fpF14W5BnpJptsEn/ipmBA+iDX8Ths3UJtNeoz2qR1TSpMPvTbnXfeGW655Zbw5JNPxr8pVz+RIHVQRUL6lo2pD0h8K4FxxbN/+o2XBQnu0iAQWEcurbca2qYARn2A/qV7xtyECRMq4618tR0npenTp1dkV1nlraRaG6TrVOcs04/8tfa6664b+433NRhvBAnsx26pL5VRtlkkaBvJwULvcLCQQFnKFTVYSOUFrZPj1DTpqAwTzZQpU8L48ePD/fffH+65554YOLzyyith8uTJ8RioRzetAHn45C5XNPQFV6P8EmTVVVeNz7n5cA/9nE4wyM86y8jHdgIJ/tSH8kWANqm9wPcGeAZO27FZ2spV6osvvhjvNJCeeeaZeAfitddei/2K3AqAWt1/kgN9034CA/qMOwZ8ppl+I62yyirxbhD9QB8hwzvvvFP5kzTpRPW1GtkMAQFt0uQoG1N7036bOHFi7DfGGv3GeKPPCNY13ooIciDrsGHDYvBNgMAvG7bYYoswatSoGDRovCE38qMXjSnpQmTXWwltITlY6B0OFhIoS7kiBwuQbU8aKGgwk1hmnxwb6xzLICdYYJJSncqLAm1lAiVYYLKn3chHLvmQmT5mme0cA6xLJ1ldFQXJQJuRQdvoK+Qk4YjZpn38+yKBAok+lD6KgNpOXxEskPRpctpIYjKljGRU26UDlSsiyJe1qaztsT+VgW3sp68IFgiM1NdFQu3lrh3BgoIi9Ql9Rb9KfvaRkA/ZdFdPsA9Ub6tRex0s9A4HCwmUpVyRH0OkMgttkyNSm1mXw0rLaH/Roc20H2el9pPUt5JNsE/rWs5uKwJpu0ipPOpDyaZJVQmKJo/Itot1yUOAwPZUvlRmyccxRZErlUftym4TrKfypPuQXTIWHdpNkv0By9ghcgDLbEvloazWdVxR5JVMDhZ6x1xJTdtQzSC1DcNNB7EMmXVtZ8CnBl4tFQXaS3tor9pdTTaldF3LyrVcBNJ2SY40T2XjSk7r2f4pUl9l26V1+i29Gk/lS/NUJ0WBtmTbld2Wrkse1iUnCV2oTBFQ/2QT0F76LJUBFCiA9qek6ywXSV7TN8y1BNN1pM4gmzTYi5q6DWSu1k+krG5alaq1jcS+biOrm6Klav1EYp8xPeFgwRhjjDG5OFgwxhhjTC4OFowxxhiTi4MFY4wxxuTiYMEYY4wxuThYMMYYY0wuDhaMMcYYk4uDBWOMMcbk4mDBGGOMMbk4WDDGGGNMLg4WjDHGGJOLgwVjjDHG5OJgwRhjjDG5OFgwxhhjTC4OFowxxhiTi4MFY4wxxuTiYMEYY4wxuThYMIWmVCrNW+oe2l3mvPa7P41pTxwsdAA4I6X333+/4py0rPV0v7Zl6Wn7QKL2pbIA61n5SFCEdtdL2lbJCZKH9N5771W2ZctrPd3eatI2ZduldWSSfNpWTb52IZWBBGxL10HbyIsgX602pO0kryafyqic6XwcLHQQ6cBledCgQfPWPnBobGPfnDlzovOWA2ebymh7q5LaAbRX27WeRW1uJ8eV7as0Hzx48L/IiYzvvvtuRT9pXoRE28lpU7qsdUAmZAO2g/ZBulx0UhmzqO+kG61LH9reqqR2IEPantmzZ8c8bSvQflK79pXpGxwsdAAazOmynAETDLn2a3nBBRcMCywwt/vlQHQs24uQQE5JbZNjkxzKNQm1A7RXTlptZ10y02eSNe0XoCzlWE911eqkNmodtJ7KSpAK2q7AKJW1XVDbU1tEDskqWWTD0k2rk9qmflHb5BPUXskkH5K1xXTZdD6DykbQtiEiTZexypCvueaasPfee0ejT51PPWJSlnLrr79+uOKKK8I666wTt6mOooKcoHbKWaUTKAP+jTfeCGPGjAnPPvtseO2118Lbb78dryZSBw7U10qzoO1DhgwJyy67bBg2bFjsh/XWWy+MGDEiLLTQQrEMbSRJRuTTRFpkaHO2jWzTZCmHjTyS78UXXwzPPPNMeOmll8KECRPCpEmTwsyZM6Oe6KdW9hXQDrVlkUUWiX224oorhlVWWSWsueaaYdSoURW5kYdl5NN6NX1ktxUN2kif0V/AMm1WuxlTb775Zhxv48aNC5MnT47jb9asWS0fW2ojMgBjauGFFw5LLrlkWGGFFcIaa6wR1l133bDccstVxhcgI23XNslR9L6inST64YADDgijR4+u2GstKAeURU50dvXVV4c999yzsk37VbZTcbCQQFnKtVuwAJKPnDR9+vQ4yTz55JPh73//e7jrrrvihDNt2rS2kCcLTnnttdcO22yzTdhhhx3CJptsEkaOHBkWW2yx2NekrFxFlZOJMjvJqP+mTJkSJ5VHH3002vKDDz4Y+43gQGVB5YuGxh3tY1IZOnRoDBg222yzsMcee4SNN944BoFLLbVULE8fUV4TUKqbopHVOesk+oXx9vLLL4dHHnmkMt6eeuqpKE+7gUxLLLFEDBoYbx//+MfDBhtsEIM/xht9prFV1DGWon5ysNA7HCwkUJZy7RYs0GauZHC4TDT33XdfuOWWW8JNN90Uxo4dGx2WZINUJ9Xkq0dXfU3aJpG2N92OnKuuumrYcccdw2677RY233zzsPzyy8erI006kJWrKNAftFMykXPH4N577w233npruPnmm8PTTz9dsV8mo5SiyiXSvgLJyphca621wk477RTTVlttFe9ASB7J2g7BAu3krhx36B544IHwt7/9LfbdCy+8MF9/IZOOS/tNy1ldDQRpO4A2kNhOwu4E27nzwJ2GXXbZJfbblltuGQM+5GRftr6iIfkcLPSSspBtS7nj5i2VSmXDjevljsQCSuVOjHm5A2NiuVZSuXKwUCobVKXOokLb1L5Zs2aVrrzyytLnPve5UvkKoFR20FEHkr9eHRQ5ZeVguRwklPbff//ShRdeWJo8eXLUB/2WUnbq85YGBvVLOYCrLKtNWiYvBw2lt99+u3TRRReVPvOZz5RWWmmlSp+RZ204lb3oSXKk66lsI0eOjDIjOzpAF6meQLojpbocSLK2o76bNGlStDlsDxtUX5Hara96SpJBfYZPwbfgY/A1+BxI+yWbFwHaQr/h0/HtqWy1UtqX6mPmGNUpiiRvf+FgIUkqV9RggbaoPeS0Dyf67LPPlo488sjogIcMGRLlKF+dxcGdlbETEn2rfiXJiR144IGlZ555pqIX8hkzZsScNNDQR5ps1F9p/uSTT5YOPfTQ2G+pPKRqcndCysq58sorRx2gi1Q39J/0pu0KGAYKzkmSDcmmsLFPf/rTpVGjRkXbkyySLytzJyTkxKcgHz4Gm8Xn4HsU6KlvpLeiIPtxsNA7HCwkSeWKfGdBkw9RPem6664rrbbaanEwaxJVnpWvExOyyomxvPjii5f+8pe/RB3Rd63qP/pJ58aONPm98847cftNN90U7WyhhRaKbU9TNTk7KaVykqMDdHHzzTdH3TA5kys4yAYOA016XmwLG9N4k+1lZezEhJypj0EH+B58EPauOw3ZuzGthr5zsNB7iv0aq6lQ7qvK89zyoIwvvF100UWhHN3HFxnLxhrLkLTM88ROpTxwK88QeQdAsqOXL3/5y+HUU0+Nv/bQvvKEM+/IgQHdq020s+xwKr88+d3vfhefnfI+CX2q8kD5TkcySmZ0gC7233//cN5550U90W/SGzbPMSyTBgr6ivPSFmwJm8K29LJpanu0tTx5zjuy85A9Z/0MvgcfhC9CL/gm+kvlTOfgYKGNwFEyCHGm55xzTjj55JPDK6+8UhmUmkC1PNAT5EChCSOVWxMJTpw303/2s5+F008/Pf66gO2UkZMbCCdGPwHn0vLEiRPDmWeeGb72ta+FqVOnxm1qjyambgFZ0yAP0Am6oe/4eSjb0Z30R97fOlJ7SLIrbAhbol3YFjamfeTpcWzrRLBPyUqeyo0P+t73vhd9Er5J/WU6CwcLbQQDk4H461//Ol7lvP7669E5cUXDPl2lso1ynXylg7yArCxLNzgxJiF+13722WfHyRkHNpCoPZpMWOZXKr/85S/DWWedVXG8dqofoL6jr371q1/F9NZbb8XtmoCVDyS0BxvClrAp3fFQH0Nqg50KviTtC3wN8rKdbfgifBK+iXKdrItuxcFCm8DgY1AyGE877bR45cWAVcKByWmJTp2MJCN5Ki/yK2BiOzr6zW9+E/UlJzdQpBMKt2cvuOCCcO6558bb2eqnbN5tVNMBOTr67W9/G84///x4W1s2zj7SQMG5sB1sSHc6gLZomVzLkqETSX0JMiIrNq6+IaEj6Uv2bzoHBwsFQ4MyHZxylFdffXU45ZRT4oeV5KSUFM0rgfJOJJUtKy/PV6U/dPWf//mf4dJLL406ZDv6FP2pIxwmV6Z33313+MUvfhEfQ3A+kvoL+rMNRSfVQWrD6OrnP/95/LgRV/M8B+8vUv1jG7QDW8FmsB0ePQDb9Z6FSI9lf6ciOdU/pGo2jK5+8pOfhKuuuirqMB1r0k8n66mTcbBQMBhgDDzlDCyWH3/88Xibj0/Iso3bf538mKFZNEFLf7p9yjPVe+65J25nGxMQifX+ACdJ/dxK/853vhM/3sOE11/n6zToo1dffTWceOKJ8YoVXfL4pj8mGvpE9sB5WcdWsBnOp6tktmNbHnfzo3GmOw3YPL4Kn4XO0GHq08hN++FgoWCkg0qTGS9+8bbxE088UdnHAJQjMx+ATuSMyHFeTNJMPDwG4N0BtqE3Xa2iz76GdjC5/ehHP4qfbFZb+uNcnYhsG92hQ3QJ6tu+Qv2BLWiyw0awFWyG7WxLbYq2mQ+QbaMX6ZNAAZ+F72I/vox9LHsMtCeeaQpG6pS45ckg4zPAf/nLX+KzbwaaAgQPvOqkOgR0yBXhtddeG2644YZKsCDnpnJ9AfVRP1da119/fbj44ovjudjuvmoM9LXAAoPChRdeGHWJTtMJqS/QGFJwQt9hI9gKNoPtqJxy9+P8oI+sfnjXBJ+F70KH+LK0jGk/HCwUDAYaDoscZ0W67LLL4jfnRW8dZicPVk3M1YIBrhivvPLK+Oa26I0es6guzs2b8/zUDqfZ1xNcNyB9kaFDdMl7DOh27va+7zfANrARbIXtsh36kGAl3daJNCMbx5DQDXoS+Cx8F/2HH2O/fJtpPxwsFAwNPBJ/jMQfCv3pT3+K+zTp6CUrlhsdeNSb5p2GggXdPdDVKAmZuUJ9+OGH421tEtv62nlRH38sxIeGOIfqpy2dqve+Rv1Iv3Flii7pO/q1L+Ec9InsAdvgPLILzk9bSLSDbfRjJyLbbNRG0QkJ8FnSG+C78GFsp14l0344WCggDCYNQH5CRmSuwYijIkrXgGtk4GXLsk59coZFS82g28Ycj8NickFG9McyuuPRAMtDhgyp6LW3qB5yntPyNjgf8xHomnP2xfmoK6urIqVa1GOzCu4Eurzuuuvi2/Z91WeC+rAF+gfbwEbUV9gOyyTJJhtrlKyeipKQMdsn9fSRUFlydEd9gP54dIoPY5nUSL2mWPgvqhMoS7n1W/gX1ZxfbeWW6KabbhrfLs5zUHkypm1nEJP4n/qRI0eG4cOHh6FDh8bjpKuBlBV6Oh/y8suPl19+OTz//PPhnXfe6VFOtmtbNR0IHb/MMsuE+++/P4waNaqyrad25MG5dG4t4yx5TnvUUUfFq2H0mpbLA5uFtD61i37ib7lXWWWVsOSSS1au1FSuCNAWJlXs9aWXXoqfAmZyp33oQWgyoWxPSDYtkz70oQ/FjyPxF8npy6norVk96Bzk48ePD1tssUVsv7b1hM6VtlNoH9sXXXTRsNpqq8XxNmLEiEq7s+Sdqz/gfCR0R3tnzJgRf3XCeHvuuefiXZa0z5ppH/WS+Dvrxx57LCy99NIV3cjWBwLJ6r+o7h0OFhIoS7lWBgsgJ8qHfPjuutab6Sq1n4SzPeigg8K2224bHRjBApMOUPdADuBaaNLhuSc/Y/u///f/xglefZ7NRZ6OVA45+UIgE7pkTuuoF50LO2MCJCfIYUI76aSTogNWkKf9ee1LJ1G1h8mFfjvwwAPDdtttFwMGJh3KUqaZdvcHyIV8wM9ECRTuvPPO+Mwa54xMlCGhc9otu66G5JK+0AMTL98ZOeKIIyovzGmMN6sH1U89XAEfc8wxFTm0rxrp+SjHejYn8PjMZz4Ttt566zjeCFLVx0VAugOCXIIFAnO+C3LJJZeEJ598Msqi1Ciqm77jU9AHH3xw3DbQOlD7HSz0krKQbUu54+Ytdc6/Tqbn5H/j1a56ZcimslON/4y31157lcrOO/6j38yZM+M5dB5ynVf5QCXO11Nif9mJxTaXr0xK//Zv/xblQS7pg35OlyV3tUQ5dEG+6667Vs7fLKkcMGvWrNKbb75Z+vKXvxz/kY+UnjttS7WUto+cbeXAt/TQQw+Vpk2bFttavuKLOXqRjoqQ1CaW1Uba/PDDD5fKjjXKhD7I0z6rlfDp5NJnOVCIOuZckLahWaRHbCLtg2xb0pT6l3SZHBvFVrFZbFd64Tw9pVSO/k46n3LQOu3Fju+4447oM9C5bLHRhD6kk/JFynznGUh0Tv/rZO8ozqWkqVDul/g29n333dfraJUr2x133DGcccYZ8fYtz2b1EhKQkzhPei6ttypB2cnG5UUWWSRemXFVyZUapC956pjygI3beoKy5QEec66euHPBcm9Jz02devzAuYTamUfZGVWOIedOAv/CuN5668V+A+qlXNmBV+QuSlKbpAvazF06ZNh+++2jTOyH8iQU855QOXUPx1IvV4d6TJD3aK4R6BvqxCZSG8mDtkhulZVNchcIW8VmsV36C1sGHdOqJLRO29V+cvkH7orgM/Adab81AvUhO8fyaA4dyzZM++FgoWBoED/77LPx53c41XRAN8qaa64ZvyC41lprxboY+KBBTNJyun2gUBuyiXbguJCbNi+++OJh+eWXD8cee2y8rctEQRnppp52p/XzLJ0Px6iOZkjPhxNksqDPuAVPnZo8gbzWedQ3wLsJ/DcCjxzSN8k5B7Krvmbb3pfQBk0CPOvWoy1AB8stt1z4/e9/Hx+hqM21JnrKSGZQcMFjKXSMHtIyKtco1IENYAt6v6Ke+tiftT9kwja/8Y1vRFvFZulTdIMty0arpYGCc9GOdFltkK+hzegXn8EXNPEhKt8o1Ee9/N/HM888M2+raUccLBQMBhfwklFvr5wYpLvvvnu8QmUZpyWnC3J0aSpS5K/2kmgbzmqjjTYK+++/f3TEbGdb2v48tB8HSeIqtZ7jeiI9jvpY56VUXsxM26V99YKj5tk5L6JiA9IDdbDMBKx+asaB9zW0ARkhbRvLTDyk1VdfPcqEbPW0WfrLlkW33HWTHnqL+ghbkF1oex46jkQb6R9sEtvERtV+2a90UgRoS9p+JZAslEEXvN+ED5Fesv1RC9VNEMkFUKPHm+LgYKGAMLgmTJgQB5gGcS00CNPByBXeZz/72Tj4cdjk1JeWzSY5hSKgNgHtpm1MEDvttFO84mYilTz16kmOEnBeot7jU9Jzk1M3/cbPxQCdp0iWPKiLK/Bddtkl9j8y02/A8elyPfUNNLSJNsuO6C+WkQWZuDUvfTWCdMlLo6+88kpcpx4SKG+E9BjZAtvqndgpixzk2CI2iW1KZtVftL6ibWpTmkC5fAWy8OhPjy4lMyjvCfZLB+iHsWHaFwcLBUMDkN/q4xDldPOoNmg5jluhG264YVxWPeQawEUHuSRb2v611147/uxRE6ecWL2oLF8ErKa7ekmPVeDC7dbsZKP1Wm2kPuTbYIMNKm/OS0ZIz8dyb9re1+S1B5mYdJCJdxjqabd0VU2X6BiywViz0B5sARq1I5Wnn7BJbDO1VcjTTdFI5afNyIAPwZdIHpA8eXKpLo6jr/Bp0C66MPPzQe+bQqCBxHcFGGz1XOVwTLVBzhUqv8lnXSkt164stdRS0TEjCzKJdLknpAecVyN3bmpBPSRd8TaD6kA2fiaYOud2RTIhC9+KUL+RmoHjpONm68hCPdgC9co+apGWYZk6kA3bbHeQRXogIRN3hAiIJKsS67XAh1EWnwb1HGOKh4OFgqEBqK82kmqhgEKTC8fj+BZbbLG4nk6K7Gv3wUr7mXjk3OslK7t03UgdPYHu+6Iu2sQtX+rjlnu9NlB0eDTD3QV+HdBbpOe+CKZUV6pjbasXymKL2GQjxxWRrOz4DsCXcPcM2C/d13MxIxvGp3FsJ9hzN+JgoYA0O6DS48g1kLkiYHBrPd3XjtB+Jh7QJA21dCa5VY7jdGwz6Nje1JFCPWk/STY55nYklQG9N3L1Xg+qpzf1pe3J2khPpDak/sEmax1XZNK2s4xsegw2N1CYe4cImtG36jTtiYOFgtLIBKGyaTAg55zCugZsuw9aySrH3qg8Kp/VUW+gLrWrWVI59FJZu4NO9FPHvkB93leormZsKO3z3vZ9UUCmavodNGiuT0llbkRnjfg0UzzcewWEwZi+2FYv2eM04DWgNVjZ3qhjLBo4K8lArlQPKif99AXotpE29EQqlxxyX7azFSCPbC5dbhbV05eTj3Rcb7vUBpUnb/dgARnQQ0/9o/3phUi1cj2Bb9Jxpv1wsFBAso6n1oBMy+o2L4OSwallEstK7Ui23XI85OhA67WQTvqSvqgvlUd5O/eXoP3ZwKcv9dVXSN/1QNnU5rJtadc+o90KfCWTtiEvy6m/SZerkepBx5v2xMFCh5J1XqZ/sb4boy/0ZZ0PLNZ3d+NgwRhjjDG5OFgwxhhjTC4OFowxxhiTi4MFY4wxxuTiYMEYY4wxuThYMMYYY0wuDhaMMcYYk4uDBWOMMcbk4mDBGGOMMbk4WDDGGGNMLg4WjDHGGJOLgwVjjDHG5OJgwRhjjDG5OFgwxhhjTC4OFowxxhiTi4MFY4wxxuTiYMEYY4wxuThYMMYYY0wuDhaMMcYYk4uDBWOMMcbk4mDBGGOMMbk4WDDGGGNMLg4WjDHGGJOLgwVjjDHG5OJgwRhjjDG5OFgwxhhjTC4OFowxxhiTi4MFY4wxxuTiYMEYY4wxuThYMMYYY0wuDhaMMcYYk4uDhYJTKpXmLdVm0KBB85bKHbvAAnGd40ksv//++3FfI3W2CrVby0KykEtGSGWvB9UBaf2NwrFqE/qlTc1CHdXk6E37Wk21tvckZ71I1yD9N4uOJW+0TSoveVRH2p60/nR7EUnbmNWvZBRaTreZzsbBQkFZcMEF55vw88gOWA3wadOmxUGf7p89e/a8pWIjueW05syZE3O2vffee2HKlCkVOUUtx8X+tEx6bG/Jnrs3dc+aNSvKnZWvXZEs9NvMmTPnbW0c6kj7MF3urZ7S49N6a0E5Hfv2229XZAXZrLbVW2erkY+QHmj/1KlT47ZG9azygwcPDgsttFBcNu2Jg4UCwuAcOnTovLW55DkaDch0ILP8wgsvhHfeeScu47gIPghCWE7LFpXU8dJ21klMOK+88krczv7UYeehMio/ZMiQuN4b5FC13Bt0VwLZZsyYER0s1CNbUVHbkS3tN8naKNSnY9EP9tAXYAvUrT6spXPZEChXv8lO1U7291U7+xt8gy5UCO6Ai47x48dX9FNN9mpkx8MiiyzSNnow/4qDhYIhx7LUUks15FDTshrAEyZMCE888URcxgEw+BnARPjZgVxEmAyQ6913361MnMiBTK+++mrclzqremRKy6+44ooVfTdLejztWXrppZvWLf1DXQ899FCYPHly3Eb9jdhB0UjbjkwPP/xwlFETUaOg22HDhsVl6kE/bGtW56oDWxCsN4L6iPH25JNPRhsFbBbbZZ/st8igQ3wD8qRj7vHHH4+ysT/VTb12qf7Bp0nfpv1oXy/UocjxjBo1ar5JvdEBJkd1/vnnV25rp3W1w4ClvUwqcr4sc6fk+uuvj8ECMgGyULaWTJQh6bjVV1895vU6vSw6H3VSB2nllVcOiy22WNzeKGrfiy++GK655ppYf7s7V9quwACZkE1yNgO6HTlyZBwb0nlv9KO+ly1onNTTPsro3ByHTV533XXRRiVzGqQXHckineA/8B0XXXRR5c4kZVSulkxpv9Bf+LTe9pdpHQ4WCoYG0yqrrBJvjeJoNHjz4Bg5OTkx0rXXXhtuu+22ivOS42qHAUsbCXpwxNIDV6ZXXXVVdMiSVdSSSTqhPupda6214va0jkbQ+XU8beSqd7nllovrjaJ6aNvZZ58dxowZE9epV21vF9Re2Ruy/Pa3v63YsmRtlOWXXz4MHz489iGonmZ1o+OxBdlaPbrWfo5XHdgktsmdIeREdtlas+0bSNRGctpP2/Ed+BDpRfKS1Ad5SA/4Mnya6jbth3utYGhArrHGGmGZZZaJyxrEPaEyGsTAQGaZq50zzzwzPPbYY7GM6lK5IqO2Kue56S9+8YvKo5VUFpZryaT9OKsll1wyrL/++nFd9TRK2j4SkwLBwqqrrhq3N4pkoO+effbZ8JWvfCVOsrRX51AqKtl20nZkQJbnnnsublN/NQO6JVhQHaqvWdQObAGb0ERWT53VZMA2sVFsFVSmWtmiouAUn4Hv4BEEelFwIN3UI5PK8HiOuze96SvTWhwsFBQc16abbloZXHmDTAOSwUxK17l9eMcdd4RvfOMb4Z577pnv6okcx8Dbz5TTuq6IBiLpfNnELVByytBmJpyjjjoqXuXQXtqfJlDeE+zXxLvVVltFB0b9bGvGiVEPx3Msy+QEC+uss05l0hH1nkN1kW6//fbw1a9+Ndx1111xOwmdADpAR9JjqxNt0Vv0tFHtvfPOO2OggCzS11zy+0rHp7C+9tprz/c+D9s+qLMxOJZ6OB5bwCZoI9vI60F9pcRte2z0yCOPDGPHjq2MN9l1T4kyA5HS8zHm6TOtAzltxlfgM/AdsjNARpbJa6E+or6NN9446lh6Mu2Hg4WCIQe58MILh912260yeJsdYNTHYGfC2WWXXcK3vvWteNXDm+nUyYDmeSLPVik70InzZ1O6j190nHjiiWHbbbcNN9xwQ3RuclyNgozUCfvuu2+Uv7e6FeiYdRziRhttFJ+t8/Y3aMKoBW2jnN7R4NYtk+wBBxwQTjjhhPDSSy/FunDuemYP0lerEtAW2kTbaCNtpc2f+tSn4oSjX55QBhkXWKD2C3/qH+D4xRdfPOpWd9yY7HpLagPYBCCL+qBRqAcd3HzzzWG77bYL3/nOd+J7GmlfsZxNqT4HKiGj7Ih24xNoKz4CX4HPQMeU7Q3oY5999on1SFbTfgwqG0nbhnk0XYaHA2KZl6j23nvvaJTaBvWISVnKcUvyiiuuiFeIbFMdAwHnl1z8FGvzzTcPr7/+emVfM1CXJhlYYoklYqTPy3iLLrpoxVlK1oGWtxoEBdyK5x0FlvX7fNrWrB4Au2Cyuffee+Mt7VTuRlE7OFa6pX7q5sry0Ucfjdug3nbLcVNegQN1s527FjxbJxGI0G/NtLs/oM20k356+umnY+LXD5KBSScrWy2yOsNmzznnnHgHQGNbdUIzuuBYtYnAlLrfeuututrXE2oTiSCHtMkmm4Q111wzXgRUo5m2N4vaJrnpN9634CICm+WnkoB9oQeVbQbqYLwxjvnFCedSvw0Uav+4ceNi4D169OjYhnpkUr9Qljajj6uvvjrsueeelW3aP5B92BLKQrYt5Y6bt1QqlY0wrpc7EgsolTsx5uUOjInlWknlysFCqWxQlToHGs5ZvlKN5//6179eKg+4mLLtrTchF/ogLzvumFMf21hP62afyrcqpednuXz1E9vGem/1QDr00ENLZedY0XNvoA76ScvUN2nSpNIXvvCFUnlimO+8pGyb0sR+5CNPj6WPkJ116UDlpKdWJ7WdxLraKntjHZkkj7b1lNifJo49+OCDS+UAJOpY47IvxqjqwyawDZ2zWrvqSakOsF3q0jaWyVuVsrLRLtkXy+xT/6i8yjaadDw+jH4qB4wVvzaQaIzi0/HttK1euSinsshDzhyjOkVvbbAdGLjwztRFuU8qUS/5F7/4xfh2fdkYm4pcVRcJyoM15oJ6VXd5MMS8mfP0J1yVlh1ZXKatzYJcI0aMCAceeGC8/QrI3CzSqZAOeabObVfu4NButqd90BPaTx3qp/RY9Yv6rGik7arWbmTS9nrQsegDXXLHkHd52KY6Rb11VkM2gE1gG9hItv5GKE8iMafevnhU0pdId7SNvJotyfbYnvZfI3AMx+K7DjvssMq6dG3aD/dcQdEAXW+99cJee+1VeYba6MBVcR2nQSvnqhzkHORAWpXUBqgWJDSqA4Gj2mmnneItYdWbyt8oHEtb5ABTGXbfffewxRZbxP2sk9dqN23S8SxTL+dQG6WXtM0q3+oksm3UMrIgk/bXM2lQRnVvueWWUaesKwFl0Guqk0bRsbQP28BG6mlfNdTPaZuoS3Irb2VSG4TaSU6SnUoH81brRsfjs/bbb7/4OJcAhPW0ftNeOFgoGOlAYpnnnV/60pfm+8JcI7z//vzRPIOV9dRxKEGRxjFtSp1a2t5m4IqRZ5YrrbRS5c19dNxsfRybto91JhxyXnDkBT85yXrgilTt4YqUurPtU/290UN/oPZIB1mQBZnUZl1950FZ6qIsutTHrtAn5wHKSE/NoDYDNoFtYCPYSjNQH4k2q27al9pJq0l1p6Q2KrAhAfrHhzQDH8869NBD43sa9BljIfVFpr1wzxUMDVwGFYOLwUpk/vnPfz6+jAgMdlK9A0+OQA6A5Z5o1jH0B9KFlutBOkE/mljZhsPi1yVcNVKXJhylZlDdIlvPzjvvHH82yPkop90KHtJzq55s36jfJL8moaJC2xQIqN3Z9mo97SvpIQ2stI2fj+64445xOT1G+VzdzlNug3CcEuembdgItoLNqG7ZEqgN9VBN/laTP/4/2MdyPUFdqh/pCF/1uc99Lvou9Eo95HnnNsWmfqs3A4oGHYOMj9AQLGyzzTaVZ+3NOK5uQM5IjouE0+cXLkzc/KKAbeiNsv3hyKlbk8RJJ50UPvKRj8w7z9z2EASSQ9qWbgOZkT3VhXSj9NGPfjR897vfjfqjvMr2JapbbcFGsBVsBttJ2wPd2Fd5yN4BHeGj+KkzPgvfpYBD+jPtiWeagsLgI1rXQMRxHXfccfFztxqYpmfQkfTEzwy//e1vx5+h4rC0PZ0A+hr6jdvuyy67bAwY+Lljej7lTDzd3J/Irsk31Q2Jr5gSKKBD3WXrD13pfED9LGMr2Iy+lcH2bu6nPFK9sIyP+uY3vxl9FuuMhf7qOzNwOFgoGBpcmkRYljP72Mc+Fk477bTKOgPQzI/uvKA7dMitz1NPPTU+h5be2Jcu9wfqH86/ww47xK/hMemxXX2qc/dXG9qBVAepbniL/vjjj4+6Q4f9aes6t/pEy9gMtqPb52qrbMx8AP0jveGj+CAVsE6fojt0qGXTfjhYKBgMLmDwpQOLdZ4D8kW83/3ud3EfV1u6KjNz4WpeL1Shy5NPPjn+/FSODL2RAN31l/7Ub5yT9hx++OHh61//ehg6dOh8E4+gvd1GVmZNKOiIxwC8HKd+TCejvia1A9mHbIU2fP/734/LtIVAoWg/h2w19Bu+CB2dd9550UfpY2/azz6t90cfmv7HwUIB4RlfOtnIiZKzfvDBB4czzjgjfloY5+XB9wE4JBwXnwbmFvbXvva1qCO9rKZJAVjvL91xHuoHchJ3F4455pj4RTv6kslHZWhztyGZ0QG6QCfo5thjj42fHKbP0gkn/TVFX4INqB9AfYfdkLAhPjmOTTE21SYzV3foA1+ET+I9BbbRT6nPApb1/oJpPxwsFBAGHwNMgw3HpQGoKy1+TnnKKadU/sktTdXoaXu7kG1/ui650RM64zPWOHcmZj7mg84UgKksyzpWy30F9aWTHHAefgb7wx/+MHzve9+Lb4nTVpL2k6rR0/Z2IK/t2ic9oBN0w5U8k7R0Q99Rlm19jWwiXSaxrMCAIAFb4n8esC3apTGpY6uRt68dqEc29MBnrHlcg09infEGlGEdXaIz1h1otTHljmxbygY4b6mzPvdcDdpBKl+NxfXyVVZp2rRppeuuu670yU9+MsqrVB6sUZbywKzIJD2wP7utiEntS/sx3ZaWYx1ZyT/2sY+VLr/88tLUqVOjrtCTdNcqdH4l2vTXv/61tPPOO1c+gay+SuXK5tVSekwrU7W2kbQvLadlyYwO0AU6SftLqVXo/LQJW8KmsC1sDFtjnH1gn3Plkm2msme3FT2pvSS1WduQmX4jsW/33XcvXXvttdEXoSfAbxbNd9Ief+65dzhYSJLKFTFYUFtIs2bNigNz9uzZcfm5554rnXHGGaUVVlghyq2BLNlJzeij1Sltt9aVa7l8tRkd2HLLLVcqX/mVnnrqqagb9IKuNKBb2Y/qN7VBfTdmzJhS+Uq6NGzYsPlkShPbFPxlt6frRUjV2lit7dpHQnZ0gC7QiSacrM5agc6tsadxh419+9vfjjaHfAQ7qUxalqzYcLpe5JTKkLZbOb6F7fia008/vfT8889HvZDov5kzZ0adoS+NvVajtjhY6B0OFpKkckW9s8DVTdZAcV4kIvuxY8fGPzBaZJFFKtG/Agf0gWPLylrURPtSZ6X+TBPyECx84hOfKN11113RYclZSS9F6j+1RW2kP/nzooceeqi0xx57RFmRhz5jWX2XJvTA9mr6aHXqqW2SRbkCCGRGdnSgO2bpZFOkvpM9AW3E1u68887SbrvtFvuMhEykVB+Sn+V0XxFT2j76SO2nz+b22+DS0KFDo48ZN25c9Dn0W7af8FHqzyJA+2iTg4Xe4b+oTqAs5coG1bK/qM6jPAArz0rLhhq3lQdxbDPby84sbr/77rvDBRdcEG699dbw9ttvhxkzZoSyc4vly04t6kXHFxuC2blvzSMfn+PlpTfetOYPhfg74S9/+cth++23j7+HR37kA2SUDaAj5CVvNbLDtC9ld3//+9/j2+T0H/1GUjkdl9o08rCufa2C9tBG2ZTsEdhHG+lD+ozEh5b4dQg/i5TsJJXTca1GNkMuW5JcskXG1W233RbOPffccN9998U+4++etZ9j6MO54hTDj/QEfaCxxlgC3rPh1yn8ORr9xS+Ltt5661hOvgSkI+mHdfVlq5F9+S+qe4eDhQTKUq6IwYJkIbGMfLRVcqmNKkf+zDPPhJtvvjk88sgj4emnnw5vvPFGmDRpUpg+fXp0cjixIoOjxuHynwB8VY/f3vNC54c//OHouOindLCyLAePDuTAhHTUSugXtZVl2jp3Mpk74TLJ0Fe33357+Oc//xmee+658NZbb83Xb6pHfV0EJJP0zSRDv/EFP37hQL8xyfCtED5QpYmU45hU0glZumg1GlugvmKbbCzVP9vGjBkTA76HHnoo9tvrr78eJk+eHPuNfqVMkUEmgm6CcX7dwHdB1l577bDxxhuHXXfdNay22mqxr5Cb/kF2ZCJXUj+CbKLV0A6Sg4Xe4WAhgbKUK+qdBUEbU3nUPg1U9pFrIOOoXnvttTB+/Pg48eDApk6dWpl4igpXLroaxXHxZ1oknJlkTPUA2obc6n+tS0+thLaozbJRofZpG/0zYcKE8PLLL4eJEyfGfpsyZUrsTyiCPCmSi0CAK1ECPCYd/lCIfiOAgJ76TXIXra9oC3lPtiW0jzsL9BuJAF13iXS1XlToH349RN/xR1qjRo2KX2OkPyUrOQnfosAB2JaSXW8ltJvkYKF3OFhIoCzlih4sQCq70LY0J2mfyO4rKrSPfszKqXXllEvLaD2bF4Ge2pbmpCzah02n+9leBLJtUr/1JIv25eVFoFbb0nWW01ywnvqiokL7JKPQNi0Lya2y6b6iQRtJDhZ6R+vvEZmmqGaY2pbmGLMcd7rOLceeksq0OnHlQq62Z5NIl0Hr2bwI9NS2NE9lTmGd/kEvSqm+WpnSNtHGam0nUVb7auVFoFbb0nWWqyXpJ9VXK1M61rNJZdK2azlF69X2mc7EwUKXkDoBoYHebqkbkKxZ591uKdv+biCVv52SYFn9ZoywNZh/IetEWpVMbarprRXJ1Kaa3lqRjGkGBwtdSt7zOva1OnUjzcqd1d1Ap2Zo9rh2J6u7VqSeyNtnjIOFLiXvCiN7JdKK1I00K3dWdwOdmqHZ49qdrO5akXoib58xDhaMKTjtfMXnq1VjOgMHC8YUnHa+4vPVqjGdgYMFY4wxxuTiYMEYY4wxuThYMMYYY0wuDhaMMcYYk4uDBWOMMcbk4mDBGGOMMbk4WDDGGGNMLg4WjDHGGJOLgwVjjDHG5OJgwRhjjDG5OFgwxhhjTC4OFowxxhiTS1sHC/xJzfvvv1/5n/b0H+7Ypz+xSZdrscACC1Tqom5jjDHtTTpP4OPrIW8OUV2aJ+qdX9qZtg0W6CTl6kjSwgsvXNmuXKkeFCCo3nqPM8YYUzyyvrzei0DKK2kdmGPSOSe7v1Np+8cQdFbK4osvXunAbCdmy6ao40nvvvtumD59emW7McaY9kQ+HJ+Ob099fU9oXzqHkNjOHJOSV08n0VHvLBAxLrnkkvPW5g8AaiFjGDx4cJg5c2Z49dVXK9uMMca0J/Lj+HR8Oz6+Xt9ebQ5hjqn37kQn0bbBgjovff7EtmWWWSYMGTJk3pYPIsN6oCxGMGPGjDBhwoTK+wvGGGPaE3w4vhyfjm/Hxzc6LwjmFuaYNHjQHJRu60Q65s4CHUYaPnx4WG655ebrYC3XMhCOx5CIPl988cV4y8oYY0x7gy/Hp+Pb8fGa4Hui2pzBMnMLc4zmm26iI6SlE5WI/EaOHBkWXHDBuN5ItKfOf+edd8LTTz8dpkyZ0nUGYYwxnQQ+HF+OT8e3a1u9MIcwlzCnMLcwx6RzTrfQ1jOhOovOVIeSr7feeuG9995ryCAoS/RJTnrmmWcqdxfmzJlTMQrlvutgjDHFQT459dX4bt1VwKfLv8vX1wtlmVOYW9K5Rss6ZyfT9pfNdFYKnbbVVlvNW5u7TkerY3tCna2Ox7DGjBkTj+GFGO3jFhaJKJPcGGNMa0l9Mkn+HN+ND8eX49Pl30F5NTRfMHek5ZhbssflzSudRFsHC9lO0vpmm20WFlpoobgMMpA842CfDANj47bV7bffHnMZIAnjoxzLxhhjigE+Gd+Mj059dtaXp76+J9inJJhTmFugp7mnk2n7OwvVWG211WKS4cg46kUBwc033xzGjx8fDYHENhkbNFKnMcaY/kG+GN+Mj2Zdfhsfji9nG769XihPfZoPNK90Kx0122EYdC4fzdhyyy3jMyYMB2RMeagsOcc+99xz4bLLLovH6r0FltPAwRhjTGtJAwRyfDU+m2V8OL48nQ/q8d0cC5oPmFOYW6ib83QbbRss0GGC5XSdTt52223nexRRj3Gkhgbkv//97+PLMXzikzrSfTImY4wxrSPrt/HV+Gx8Nz4867frmezTOYO5hDkl9fnUpXohXe5EOma2U+eTYySbbrppWHHFFeczjFqTuzqf8ur4N954Ixx33HFh2rRpFYMkEWkaY4wpBvhk+Wd8NT4b340PB7bLt5Py0FxBeZaZS5hT+Nmk5hPl3ULbBgtpR2WXiQhXXnnl+DIKy2zTSy+1SA2J8ixfddVV4U9/+lNlH9t589YYY0wx0K8h5Kfx2fhu+WzQvlpQhiBB88nmm28eRo0aFQOSvLmnk+mYOwtZVlhhhXjbSH/6wfOrZjsTw/mf//mfcNddd0XDwYioTwZojDGmdeCL9Y4Cy/hqfHY9gUE1mCv03YYlllgifPSjHw3LL798XO9WOjJY4C4Cnb3NNtvEt1cxnt7cCcBo+J3umWeeGZ5//vm4Tn26VWWMMaZ14IvxyfhmfDS+Gp+tCb9RNGeQr7rqqvHCkzmlkV9TdBodO9vRyRtvvHF8FLHooovG9d7A7adrr702nHHGGWHSpEnRcGbPnj1vrzHGmFaBL8Yn45vx0fjq3r5XxvHMHR/+8IfDRhtt1PRdik6hY4MF3l6low888MCw1FJLxY7uzS0pwHjOP//8cMopp4TXXnstvkipervdkIwxZiBJfS++GJ+Mb8ZHK1CQ724GjmXu+MxnPhMWW2yxrr6rAB19H527Cdtvv3342Mc+1quOlkFiPNzWOuecc8IJJ5wQRo8eXdmXljPGGNM/VPO5+GJ8Mr4ZH42vTss1A482ePzAHEI9vQk8OoFBZSV05OxGoIBodDgvu+y2226VvydNDUkGUEsNOkbLpF122SUcf/zx4eMf/3hc13sR2XKsc179IiN910FtSI8xxphOJvV38oFCPpK7A+Qqk/WRBAVsu+222+I7CjfddNO/lNNyT1CGpHmB8+n8/EzyhhtuiO++pfu7lcE/LDNvueOQsfAf5PzmlqCBbZAakV6IrGVYoOOBF2nuueeeeAtsgw02iPvSYEB1yuCVUrRebZ8xxnQiqb/L+r10O0kTtZJ+iTZr1qzwhz/8IfzgBz8IDzzwQMV/U6Ye5JdVv3w1iW3HHHNM+PznPx/nh9SHdysde2cBEE0GMHny5Pg4Qo8OMAbuBOjZViNqSA1GxrbrrruGX/3qV2H11VeP70vovMAyBqfzZo83xphuJvW/8p34RvyzfCS+k+28zMjnm5nMb7zxxrgte3yjqA5yzsPFH38+NWzYsIrP7nZf3ZH3VBQAAJ1PJMoLKhhX+m1vbmNxV6BRQ0iNkeMIBLgF9pGPfCR87WtfC3/729/Cq6++GiNfGRptkuGnyRhjup2sX0z9JT4UX4pPxbfiY/G1+FzdFRaNBAo6l34iCRzPS41HH310nDP07QaRzi3dRkfeWZBIGALLGAKJn9WcfPLJ4YILLohGIGOEZtUgg8OgqA/jXXrppeNHPEj85IZvPay00krx4x5p27LnZr3ZdhhjTLuQ+rrUD6bbpk6dGl555ZX4uPexxx4Ld999d0wTJ06s+Fr8enpco6Tnpj7eUzjkkEPCj370ozB8+PDo10nV2tttdOxjCIyJTsaYMALg9tUjjzwSI9P7778/bm/2ox1CRkRd5CTOS47h8dUvPhPK56dXWWWV+I1xvi5JNJs1um41QmNM95GdeljHH3MHYcKECfFPoF566aX4F9P8LJK7C/hIfDo5SRd82brqQf6WY/VImn+W5MuPm2yySbzrDNXmkm6kY4MFxEqNSAaGMV555ZXxkcTrr78et5EwiGbBkIBzCJ1bxsUyxkfSn5GojNpqjDHdhHxf6gsJCriw04eWoFpQoIuydFuj4J/lt5dddtlw1llnhf333z8GD9Qr365zqz3dSEe/4FgNGcZPf/rT8J//+Z/RCBUoYDhaxihkIH2hotTIZIDGGGPmJ73o6ivfm/Xlqa9nmcSvKr7zne/EbTrGfEDXBgtM2Mcee2w477zzwowZMyqRK9u1DOSp8fYGG58xxtRHX01NugMB5LqboOWhQ4eGww8/PPzyl7+cb34w89NVwQKi8hhChsC3F4gm//jHP8aXaZjMCRR0C4plfgbJy5B9BefoIpUbY0xD9LWPlA8nMKBu5gCWOQcvnR966KHxLrP+oZiAodo7Zd1O1wULJIxAESQv0/D1LwKGKVOmxH0EE+xXub5WkY3QGGOq0x/+VncX5NtZ5ieSBAp8hZeXzkHlOMZ+en667jEE8AKNPpyEQRAw/OQnP4lfA9NdBD2KIALtyzsLxhhjBg58Pf4cf48/17bDDjssnHTSSTFQ0FyAr+cFdPOvdF2wIHHJFUXqLgMvt/z85z+vGA5onzHGmPYEXw/y7d/85jfjS+7APrbpbjIoNx/QlXcWRGocRJ4YDT+dIfEbX1SjlMIxXaw2Y4xpG/DXSnzr5utf/3r86Tz+X3ca8OcKKEx1ujpYSEENCh74pCh3GP75z3+G6dOnV/YD+4H1VHXaLqxWY4zpW3rys+l2lrPb+XTz1ltvHe8o8A/E7NcdBVMfDhbmgRpkQHwMZNy4cfEdBj4N/eabb8a3Y4GAgsTHlSinyFTvOIBVaowx/UPqZ+V/8cn4aN450B0CyrF9mWWWCf/2b/8W31FYZ511ou/WhaGDhfpxsDAPGQ+5ggZ+HcG3yE888cTw+OOPV/azT2pL1Yfh8rMcGSFljTHG9B75XRKBARdognV8r7YrCOCzzT/+8Y/j//Tw6wf5edWlwMLUxsFCggIBQC2KUgkCzjjjjHDqqaeGmTNnVn4dQRkMT0ZLOQUbxhhj+h5N9tX8Ltv5pcMiiywSX1g/4YQT4nb2s11BROrrTX04WJgHasD4iExlXBiTljGysWPHxq98/f3vf48/t9SHnFIDBI7TsjHGmL4h9a2a7PHR+GA+qsQf9+2yyy7xL6bXXnvtuF8+Wj6dZX2YSb7b1MbBwjyyBphO9lIRhsVdhSeeeCJcccUV8REFy7zTALr9RR2Keo0xxvQN6V0ElmHEiBHhQx/6UHzUcMABB4QNN9ywctGHP04Dgqx/17qpjYOFBEWePSEDU9Dw3HPPhYceeijce++94Y477ojvNfA/E9SRBhjAsTJc1WOMMWZ+5D9J8sepP8V/8n8OBAXbbbdd2GqrrcJmm20WVltttcrH9qCWL8/bb/4VBwsNInWRkzA6fl75xhtvhGeffTYGDrfeemsMHCZOnFgJDBQ0pOq26o0xZi7ykZD1l0zsSy+9dAwQdtxxxxggrLHGGvFvpflZJPs5RseldZm+wcFCk0htBAMkbolhsGwnvf322+Gpp54KDz74YLz7QCAxYcKE+MiC4ILHFBxHWRu2MaZbkQ/Ef+JHmfx5tLDiiivGgGDTTTcNm2++eXwHYckll6wEBfhP/CjHkcC+tP9wsNAHSIXk+ldLBQ4ybJYxbv6Xgn+7xMj1joP2q7wxxnQyWd9IIlAg8aIi/8+AD2W/LqpYZ5nEOwnylfaZA4ODhV4iQ5bhy3Bl1KnBswysc0x6HLgrjDHdQur3Ul8oP6ht5PKf8qE6RmW03fQf1nAv6clQ2U6UTK4y5DJwY4wx8yPfKL+pZfnSLPKrpv/xnYUmSFUmQ2Uby8rTbUBkzLLWjTHG9Ex6N7aaX81uE/ax/YODBWOMMcbk4scQxhhjjMnFwYIxxhhjcnGwYIwxxphcHCwYY4wxJhcHC8YYY4zJxcGCMcYYY3JxsGCMMcaYXBwsGGOMMSYXBwvGGGOMycXBgjHGGGNycbBgjDHGmFwcLBhjjDEmFwcLxhhjjMnFwYIxxhhjcnGwYIwxxphcHCwYY4wxJhcHC8YYY4zJxcGCMcYYY3JxsGCMMcaYXBwsGGOMMSYXBwvGGGOMycXBgjHGGGNycbBgjDHGmFwcLBhjjDEmFwcLxhhjjMnFwYIxxhhjcnGwYIwxxphcHCwYY4wxJhcHC8YYY4zJxcGCMcYYY3JxsGCMMcaYXBwsGGOMMSYXBwvGGGOMycXBgjHGGGNycbBgjDHGmFwcLBhjjDEmFwcLxhhjjMnFwYIxxhhjcnGwYIwxxphcHCwYY4wxJhcHC8YYY4zJIYT/D0kEI+zMcnGRAAAAAElFTkSuQmCC;" parent="1" vertex="1">
          <mxGeometry x="391" y="207" width="67.17" height="70" as="geometry" />
        </mxCell>
        <mxCell id="fc4LyqZEj_QPbQh21jAA-96" value="" style="html=1;verticalLabelPosition=bottom;align=center;labelBackgroundColor=#ffffff;verticalAlign=top;strokeWidth=3;strokeColor=#000000;shadow=0;dashed=0;shape=mxgraph.ios7.icons.map;fillColor=none;" parent="1" vertex="1">
          <mxGeometry x="510" y="217" width="53" height="53" as="geometry" />
        </mxCell>
        <mxCell id="fc4LyqZEj_QPbQh21jAA-99" value="" style="sketch=0;html=1;aspect=fixed;strokeColor=none;shadow=0;fillColor=#000000;verticalAlign=top;labelPosition=center;verticalLabelPosition=bottom;shape=mxgraph.gcp2.maps_api" parent="1" vertex="1">
          <mxGeometry x="580" y="226.5" width="22.57" height="37" as="geometry" />
        </mxCell>
        <mxCell id="fc4LyqZEj_QPbQh21jAA-100" value="&lt;h1 style=&quot;font-size: 23px;&quot;&gt;Objects&lt;/h1&gt;" style="text;html=1;strokeColor=none;fillColor=none;spacing=5;spacingTop=-20;whiteSpace=wrap;overflow=hidden;rounded=0;align=center;fontSize=23;" parent="1" vertex="1">
          <mxGeometry x="15.730000000000004" y="360" width="118.53" height="60" as="geometry" />
        </mxCell>
        <mxCell id="fc4LyqZEj_QPbQh21jAA-101" value="&lt;h1 style=&quot;font-size: 23px;&quot;&gt;Relations&lt;/h1&gt;" style="text;html=1;strokeColor=none;fillColor=none;spacing=5;spacingTop=-20;whiteSpace=wrap;overflow=hidden;rounded=0;align=center;fontSize=23;" parent="1" vertex="1">
          <mxGeometry x="175.73000000000002" y="360" width="118.53" height="60" as="geometry" />
        </mxCell>
        <mxCell id="fc4LyqZEj_QPbQh21jAA-102" value="&lt;h1 style=&quot;font-size: 23px;&quot;&gt;Time&lt;/h1&gt;" style="text;html=1;strokeColor=none;fillColor=none;spacing=5;spacingTop=-20;whiteSpace=wrap;overflow=hidden;rounded=0;align=center;fontSize=23;" parent="1" vertex="1">
          <mxGeometry x="335.73" y="310" width="118.53" height="30" as="geometry" />
        </mxCell>
        <mxCell id="fc4LyqZEj_QPbQh21jAA-103" value="&lt;h1 style=&quot;font-size: 23px;&quot;&gt;Location&lt;/h1&gt;&lt;div style=&quot;font-size: 23px;&quot;&gt;&lt;br style=&quot;font-size: 23px;&quot;&gt;&lt;/div&gt;" style="text;html=1;strokeColor=none;fillColor=none;spacing=5;spacingTop=-20;whiteSpace=wrap;overflow=hidden;rounded=0;align=center;fontSize=23;" parent="1" vertex="1">
          <mxGeometry x="495.73" y="310" width="118.53" height="30" as="geometry" />
        </mxCell>
        <mxCell id="fc4LyqZEj_QPbQh21jAA-104" value="&lt;h1 style=&quot;font-size: 23px;&quot;&gt;Events&lt;/h1&gt;" style="text;html=1;strokeColor=none;fillColor=none;spacing=5;spacingTop=-20;whiteSpace=wrap;overflow=hidden;rounded=0;align=center;fontSize=23;" parent="1" vertex="1">
          <mxGeometry x="420" y="360" width="113" height="50" as="geometry" />
        </mxCell>
        <mxCell id="jh1rNjYCe_qUlhZB1Dzx-1" value="" style="rounded=1;whiteSpace=wrap;html=1;strokeWidth=3;" vertex="1" parent="1">
          <mxGeometry x="640" y="190" width="150" height="160" as="geometry" />
        </mxCell>
        <mxCell id="jh1rNjYCe_qUlhZB1Dzx-9" value="&lt;h1 style=&quot;font-size: 23px;&quot;&gt;General&lt;br&gt;Information&lt;/h1&gt;" style="text;html=1;strokeColor=none;fillColor=none;spacing=5;spacingTop=-20;whiteSpace=wrap;overflow=hidden;rounded=0;align=center;fontSize=23;" vertex="1" parent="1">
          <mxGeometry x="635" y="346" width="160" height="70" as="geometry" />
        </mxCell>
        <mxCell id="jh1rNjYCe_qUlhZB1Dzx-11" value="&lt;br&gt;" style="sketch=0;outlineConnect=0;fontColor=#232F3E;gradientColor=none;strokeColor=#000000;fillColor=#ffffff;dashed=0;verticalLabelPosition=bottom;verticalAlign=top;align=center;html=1;fontSize=12;fontStyle=0;aspect=fixed;shape=mxgraph.aws4.resourceIcon;resIcon=mxgraph.aws4.documents;" vertex="1" parent="1">
          <mxGeometry x="650" y="209.4" width="70.6" height="70.6" as="geometry" />
        </mxCell>
        <mxCell id="jh1rNjYCe_qUlhZB1Dzx-14" value="" style="sketch=0;outlineConnect=0;fontColor=#232F3E;gradientColor=none;strokeColor=#000000;fillColor=#ffffff;dashed=0;verticalLabelPosition=bottom;verticalAlign=top;align=center;html=1;fontSize=12;fontStyle=0;aspect=fixed;shape=mxgraph.aws4.resourceIcon;resIcon=mxgraph.aws4.search_documents;" vertex="1" parent="1">
          <mxGeometry x="710" y="209.4" width="70" height="70" as="geometry" />
        </mxCell>
        <mxCell id="jh1rNjYCe_qUlhZB1Dzx-39" value="&lt;font style=&quot;font-size: 21px;&quot;&gt;Unstructured&lt;/font&gt;" style="text;html=1;strokeColor=none;fillColor=none;align=center;verticalAlign=middle;whiteSpace=wrap;rounded=0;" vertex="1" parent="1">
          <mxGeometry x="20" y="575" width="150" height="30" as="geometry" />
        </mxCell>
        <mxCell id="jh1rNjYCe_qUlhZB1Dzx-40" value="&lt;font style=&quot;font-size: 21px;&quot;&gt;Structured&lt;/font&gt;" style="text;html=1;strokeColor=none;fillColor=none;align=center;verticalAlign=middle;whiteSpace=wrap;rounded=0;" vertex="1" parent="1">
          <mxGeometry x="380" y="575" width="150" height="30" as="geometry" />
        </mxCell>
        <mxCell id="jh1rNjYCe_qUlhZB1Dzx-41" value="&lt;font style=&quot;font-size: 21px;&quot;&gt;Knowledge&lt;/font&gt;" style="text;html=1;strokeColor=none;fillColor=none;align=center;verticalAlign=middle;whiteSpace=wrap;rounded=0;" vertex="1" parent="1">
          <mxGeometry x="496.49999999999994" y="795" width="150" height="30" as="geometry" />
        </mxCell>
        <mxCell id="jh1rNjYCe_qUlhZB1Dzx-42" value="&lt;font style=&quot;font-size: 21px;&quot;&gt;Information&lt;/font&gt;" style="text;html=1;strokeColor=none;fillColor=none;align=center;verticalAlign=middle;whiteSpace=wrap;rounded=0;" vertex="1" parent="1">
          <mxGeometry x="115.49999999999994" y="795" width="150" height="30" as="geometry" />
        </mxCell>
        <mxCell id="jh1rNjYCe_qUlhZB1Dzx-46" value="" style="endArrow=none;html=1;rounded=0;strokeWidth=2;entryX=0.5;entryY=1;entryDx=0;entryDy=0;dashed=1;dashPattern=1 2;" edge="1" parent="1">
          <mxGeometry width="50" height="50" relative="1" as="geometry">
            <mxPoint x="190.75" y="790" as="sourcePoint" />
            <mxPoint x="190" y="610" as="targetPoint" />
          </mxGeometry>
        </mxCell>
        <mxCell id="jh1rNjYCe_qUlhZB1Dzx-48" value="" style="rounded=1;whiteSpace=wrap;html=1;strokeWidth=3;" vertex="1" parent="1">
          <mxGeometry x="20" y="620" width="150" height="160" as="geometry" />
        </mxCell>
        <mxCell id="jh1rNjYCe_qUlhZB1Dzx-49" value="" style="rounded=1;whiteSpace=wrap;html=1;strokeWidth=3;" vertex="1" parent="1">
          <mxGeometry x="211.43" y="620" width="150" height="160" as="geometry" />
        </mxCell>
        <mxCell id="jh1rNjYCe_qUlhZB1Dzx-50" value="" style="rounded=1;whiteSpace=wrap;html=1;strokeWidth=3;" vertex="1" parent="1">
          <mxGeometry x="402.86" y="620" width="150" height="160" as="geometry" />
        </mxCell>
        <mxCell id="jh1rNjYCe_qUlhZB1Dzx-51" value="" style="rounded=1;whiteSpace=wrap;html=1;strokeWidth=3;" vertex="1" parent="1">
          <mxGeometry x="593.86" y="621" width="150" height="160" as="geometry" />
        </mxCell>
        <mxCell id="jh1rNjYCe_qUlhZB1Dzx-54" value="&lt;font style=&quot;font-size: 21px;&quot;&gt;&lt;b&gt;Documents&lt;/b&gt;&lt;/font&gt;" style="text;html=1;strokeColor=none;fillColor=none;align=center;verticalAlign=middle;whiteSpace=wrap;rounded=0;" vertex="1" parent="1">
          <mxGeometry x="33.62" y="665" width="125.71" height="70" as="geometry" />
        </mxCell>
        <mxCell id="jh1rNjYCe_qUlhZB1Dzx-55" value="" style="endArrow=none;html=1;rounded=0;strokeWidth=2;entryX=0.5;entryY=1;entryDx=0;entryDy=0;dashed=1;dashPattern=1 2;" edge="1" parent="1">
          <mxGeometry width="50" height="50" relative="1" as="geometry">
            <mxPoint x="382.75" y="791" as="sourcePoint" />
            <mxPoint x="382" y="611" as="targetPoint" />
          </mxGeometry>
        </mxCell>
        <mxCell id="jh1rNjYCe_qUlhZB1Dzx-60" value="&lt;font style=&quot;font-size: 21px;&quot;&gt;&lt;b&gt;Tables:&lt;/b&gt;&lt;br&gt;objects, relations, events, information&lt;br&gt;&lt;/font&gt;" style="text;html=1;strokeColor=none;fillColor=none;align=center;verticalAlign=middle;whiteSpace=wrap;rounded=0;" vertex="1" parent="1">
          <mxGeometry x="221.43" y="630" width="130" height="140" as="geometry" />
        </mxCell>
        <mxCell id="jh1rNjYCe_qUlhZB1Dzx-61" value="&lt;font style=&quot;font-size: 21px;&quot;&gt;&lt;b&gt;CSIQs&lt;/b&gt;&lt;/font&gt;" style="text;html=1;strokeColor=none;fillColor=none;align=center;verticalAlign=middle;whiteSpace=wrap;rounded=0;" vertex="1" parent="1">
          <mxGeometry x="412.15" y="665" width="125.71" height="70" as="geometry" />
        </mxCell>
        <mxCell id="jh1rNjYCe_qUlhZB1Dzx-62" value="&lt;span style=&quot;font-size: 21px;&quot;&gt;&lt;b&gt;5WH&lt;/b&gt;&lt;/span&gt;" style="text;html=1;strokeColor=none;fillColor=none;align=center;verticalAlign=middle;whiteSpace=wrap;rounded=0;" vertex="1" parent="1">
          <mxGeometry x="602.57" y="665" width="125.71" height="70" as="geometry" />
        </mxCell>
        <mxCell id="jh1rNjYCe_qUlhZB1Dzx-66" value="" style="shape=singleArrow;whiteSpace=wrap;html=1;strokeWidth=2;" vertex="1" parent="1">
          <mxGeometry x="171" y="690" width="39" height="20" as="geometry" />
        </mxCell>
        <mxCell id="jh1rNjYCe_qUlhZB1Dzx-72" value="" style="shape=singleArrow;whiteSpace=wrap;html=1;strokeWidth=2;" vertex="1" parent="1">
          <mxGeometry x="362.5" y="690" width="39" height="20" as="geometry" />
        </mxCell>
        <mxCell id="jh1rNjYCe_qUlhZB1Dzx-73" value="" style="shape=singleArrow;whiteSpace=wrap;html=1;strokeWidth=2;" vertex="1" parent="1">
          <mxGeometry x="552.86" y="690" width="39" height="20" as="geometry" />
        </mxCell>
      </root>
    </mxGraphModel>
  </diagram>
</mxfile>
